STARTFONT 2.1
COMMENT
COMMENT Converted from OpenType font "F:\Code\Pedal\Fonts\76London.otf" by "otf2bdf 3.0".
COMMENT
FONT -FreeType-76London-Medium-R-Normal--50-500-72-72-P-204-ISO10646-1
SIZE 50 72 72
FONTBOUNDINGBOX 53 62 -1 -11
STARTPROPERTIES 19
FOUNDRY "FreeType"
FAMILY_NAME "76London"
WEIGHT_NAME "Medium"
SLANT "R"
SETWIDTH_NAME "Normal"
ADD_STYLE_NAME ""
PIXEL_SIZE 50
POINT_SIZE 500
RESOLUTION_X 72
RESOLUTION_Y 72
SPACING "P"
AVERAGE_WIDTH 204
CHARSET_REGISTRY "ISO10646"
CHARSET_ENCODING "1"
FONT_ASCENT 49
FONT_DESCENT 10
COPYRIGHT "Copyright © 1997 [T-26] 1110 N. Milwaukee Ave. IL 60622. T0279 ID#5092439 Designer: Peter Bruhn"
_OTF_FONTFILE "F:\Code\Pedal\Fonts\76London.otf"
_OTF_PSNAME "76London"
ENDPROPERTIES
CHARS 211
STARTCHAR 0020
ENCODING 32
SWIDTH 300 0
DWIDTH 15 0
BBX 0 0 0 0
BITMAP
ENDCHAR
STARTCHAR 0021
ENCODING 33
SWIDTH 300 0
DWIDTH 15 0
BBX 8 39 3 0
BITMAP
7E
FF
FF
FF
FF
FF
FF
FF
FF
FF
FF
FF
FF
FF
FF
FF
FF
FF
FF
FF
FF
FF
FF
FF
FF
FF
FF
FF
FF
FF
00
00
7F
FF
FF
FF
FF
FF
7E
ENDCHAR
STARTCHAR 0022
ENCODING 34
SWIDTH 440 0
DWIDTH 22 0
BBX 15 12 3 27
BITMAP
783C
FC7E
FC7E
FC7E
783C
783C
783C
783C
783C
783C
783C
783C
ENDCHAR
STARTCHAR 0023
ENCODING 35
SWIDTH 600 0
DWIDTH 30 0
BBX 30 40 0 -1
BITMAP
000F83E0
000F83E0
000F03C0
000F03C0
001F07C0
001F07C0
001F0780
001E0780
001E0F80
003E0F80
003E0F80
07FFFFFC
0FFFFFF8
0FFFFFF8
0FFFFFF8
0FFFFFF8
00781E00
00F83E00
00F83E00
00F83E00
00F03C00
00F07C00
01F07C00
01F07800
7FFFFFC0
7FFFFFC0
7FFFFFC0
7FFFFFC0
FFFFFFC0
03C1F000
07C1F000
07C1F000
0781E000
0781E000
0F83E000
0F83E000
0F83C000
0F03C000
1F07C000
1F07C000
ENDCHAR
STARTCHAR 0024
ENCODING 36
SWIDTH 580 0
DWIDTH 29 0
BBX 23 39 4 0
BITMAP
007C00
007C00
007C00
0FFFF8
3FFFF8
7FFFF8
7FFFF8
FFFFF8
FF0000
FE0000
FE0000
FE0000
FE0000
FE0000
FF0000
FF8000
FFFFE0
7FFFF8
7FFFFC
3FFFFC
0FFFFE
0003FE
0001FE
0000FE
0000FE
0000FE
0000FE
0000FE
0000FE
0000FE
0001FE
3FFFFE
3FFFFC
3FFFFC
3FFFF8
3FFFE0
007C00
007C00
007C00
ENDCHAR
STARTCHAR 0025
ENCODING 37
SWIDTH 720 0
DWIDTH 36 0
BBX 33 40 2 0
BITMAP
1FF8007800
7FFE007000
7FFF00F000
FC1F00E000
F81F01E000
F81F01C000
F81F03C000
F81F078000
F81F070000
F81F0F0000
F81F0E0000
F81F1E0000
F81F1C0000
F81F3C0000
F81F380000
F81F780000
7C3E700000
7FFEF00000
1FF9E00000
0001C00000
0003C00000
0003800000
0007800000
00070FFE00
000F3FFF00
000E7E1F80
001E7C0F80
001C7C0F80
003C7C0F80
00387C0F80
00787C0F80
00F07C0F80
00E07C0F80
01E07C0F80
01C07C0F80
03C07C0F80
03807C0F80
07807F3F80
07003FFF00
0F000FFC00
ENDCHAR
STARTCHAR 0026
ENCODING 38
SWIDTH 680 0
DWIDTH 34 0
BBX 28 39 3 -1
BITMAP
03FFF000
1FFFF000
3FFFF000
7FFFF000
7FFFF000
FFFFF000
FF000000
FE000000
FE000000
FE000000
FE000000
FE000000
FE000000
FE000000
FE000000
FF000000
7FFFFFF0
7FFFFFF0
1FFFFFF0
3FFFFFF0
7FFFFFF0
7F80FE00
FF00FE00
FE00FE00
FE00FE00
FE00FE00
FE00FE00
FE00FE00
FE00FE00
FE00FE00
FE00FE00
FE00FE00
FF00FE00
FF83FE00
7FFFFE00
7FFFFC00
7FFFFC00
3FFFF800
0FFFE000
ENDCHAR
STARTCHAR 0027
ENCODING 39
SWIDTH 300 0
DWIDTH 15 0
BBX 6 12 4 27
BITMAP
78
FC
FC
FC
78
78
78
78
78
78
78
78
ENDCHAR
STARTCHAR 0028
ENCODING 40
SWIDTH 300 0
DWIDTH 15 0
BBX 12 39 2 0
BITMAP
00F0
03F0
0FC0
1F00
1F00
3E00
3E00
7E00
7E00
7E00
7E00
FE00
FE00
FE00
FE00
FE00
FE00
FE00
FE00
FE00
FE00
FE00
FE00
FE00
FE00
FE00
FE00
FE00
FE00
7E00
7E00
7E00
7E00
3F00
3F00
1F00
0FC0
07F0
00F0
ENDCHAR
STARTCHAR 0029
ENCODING 41
SWIDTH 300 0
DWIDTH 15 0
BBX 12 39 1 0
BITMAP
F000
FE00
3F00
0F80
0FC0
07C0
07E0
07E0
07E0
07E0
07F0
07F0
07F0
07F0
07F0
07F0
07F0
07F0
07F0
07F0
07F0
07F0
07F0
07F0
07F0
07F0
07F0
07F0
07F0
07E0
07E0
07E0
07C0
07C0
0F80
0F80
3F00
FC00
F000
ENDCHAR
STARTCHAR 002A
ENCODING 42
SWIDTH 600 0
DWIDTH 30 0
BBX 18 18 7 21
BITMAP
03E000
03E000
03E000
03E000
43E100
73E780
FBEF80
FFFFC0
FFFFC0
1FF800
07F000
07F800
0FFC00
1F7E00
3F3E00
3E3E00
1E1C00
041800
ENDCHAR
STARTCHAR 002B
ENCODING 43
SWIDTH 600 0
DWIDTH 30 0
BBX 26 27 2 0
BITMAP
001E0000
007F0000
007F0000
007F0000
007F0000
007F0000
007F0000
007F0000
007F0000
007F0000
7FFFFF80
FFFFFFC0
FFFFFFC0
FFFFFFC0
FFFFFFC0
FFFFFFC0
FFFFFF80
007F0000
007F0000
007F0000
007F0000
007F0000
007F0000
007F0000
007F0000
007F0000
001C0000
ENDCHAR
STARTCHAR 002C
ENCODING 44
SWIDTH 300 0
DWIDTH 15 0
BBX 8 11 3 -4
BITMAP
7F
FF
FF
FF
FF
FF
7F
1E
7E
FC
F0
ENDCHAR
STARTCHAR 002D
ENCODING 45
SWIDTH 360 0
DWIDTH 18 0
BBX 12 7 3 11
BITMAP
7FE0
FFF0
FFF0
FFF0
FFF0
FFF0
7FE0
ENDCHAR
STARTCHAR 002E
ENCODING 46
SWIDTH 300 0
DWIDTH 15 0
BBX 8 7 3 1
BITMAP
7F
FF
FF
FF
FF
FF
7E
ENDCHAR
STARTCHAR 002F
ENCODING 47
SWIDTH 300 0
DWIDTH 15 0
BBX 14 39 0 0
BITMAP
003C
003C
003C
0038
0078
0078
0078
0070
00F0
00F0
00E0
00E0
01E0
01E0
01C0
03C0
03C0
03C0
0380
0780
0780
0780
0700
0F00
0F00
0F00
0E00
1E00
1E00
1C00
1C00
3C00
3C00
3800
7800
7800
7800
7000
F000
ENDCHAR
STARTCHAR 0030
ENCODING 48
SWIDTH 600 0
DWIDTH 30 0
BBX 24 39 3 0
BITMAP
03FFC0
0FFFF0
3FFFFC
3FFFFC
7FFFFE
7FEFFE
FF00FF
FF00FF
FE007F
FE007F
FE007F
FE007F
FE007F
FE007F
FE007F
FE007F
FE007F
FE007F
FE007F
FE007F
FE007F
FE007F
FE007F
FE007F
FE007F
FE007F
FE007F
FE007F
FE007F
FE007F
FF007F
FF00FF
7F80FE
7FE7FE
7FFFFE
7FFFFC
3FFFFC
1FFFF8
03FFC0
ENDCHAR
STARTCHAR 0031
ENCODING 49
SWIDTH 340 0
DWIDTH 17 0
BBX 11 39 3 0
BITMAP
FE00
FF80
FFC0
FFC0
FFC0
FFC0
1FE0
0FE0
0FE0
0FE0
0FE0
0FE0
0FE0
0FE0
0FE0
0FE0
0FE0
0FE0
0FE0
0FE0
0FE0
0FE0
0FE0
0FE0
0FE0
0FE0
0FE0
0FE0
0FE0
0FE0
0FE0
0FE0
0FE0
0FE0
0FE0
0FE0
0FE0
0FE0
0FE0
ENDCHAR
STARTCHAR 0032
ENCODING 50
SWIDTH 600 0
DWIDTH 30 0
BBX 23 39 4 0
BITMAP
3FFFC0
3FFFF0
3FFFF8
3FFFFC
3FFFFC
3FFFFE
0001FE
0000FE
0000FE
0000FE
0000FE
0000FE
0000FE
0000FE
0001FE
0003FE
07FFFC
1FFFFC
3FFFF8
7FFFF0
7FFFC0
FF8000
FF0000
FF0000
FE0000
FE0000
FE0000
FE0000
FE0000
FE0000
FE0000
FE0000
FE0000
FFFFFE
FFFFFE
FFFFFE
FFFFFE
FFFFFE
FFFFFE
ENDCHAR
STARTCHAR 0033
ENCODING 51
SWIDTH 520 0
DWIDTH 26 0
BBX 21 39 2 0
BITMAP
FFFF80
FFFFE0
FFFFE0
FFFFF0
FFFFF0
FFFFF0
0007F0
0007F8
0003F8
0003F8
0003F8
0003F8
0003F8
0003F8
0003F8
0003F8
0FFFF8
0FFFF8
0FFFF8
0FFFF8
0FFFF8
0003F8
0003F8
0003F8
0003F8
0003F8
0003F8
0003F8
0003F8
0003F8
0003F8
0007F8
0007F8
FFFFF0
FFFFF0
FFFFF0
FFFFE0
FFFFE0
FFFF80
ENDCHAR
STARTCHAR 0034
ENCODING 52
SWIDTH 600 0
DWIDTH 30 0
BBX 23 39 4 0
BITMAP
FE00FE
FE00FE
FE00FE
FE00FE
FE00FE
FE00FE
FE00FE
FE00FE
FE00FE
FE00FE
FE00FE
FE00FE
FE00FE
FE00FE
FF00FE
FF80FE
7FFFFE
7FFFFE
7FFFFE
3FFFFE
0FFFFE
0000FE
0000FE
0000FE
0000FE
0000FE
0000FE
0000FE
0000FE
0000FE
0000FE
0000FE
0000FE
0000FE
0000FE
0000FE
0000FE
0000FE
0000FE
ENDCHAR
STARTCHAR 0035
ENCODING 53
SWIDTH 600 0
DWIDTH 30 0
BBX 23 39 4 0
BITMAP
03FFF0
1FFFF0
3FFFF0
7FFFF0
7FFFF0
FFFFF0
FF0000
FE0000
FE0000
FE0000
FE0000
FE0000
FE0000
FE0000
FE0000
FE0000
FFFFE0
FFFFF0
FFFFF8
FFFFFC
FFFFFC
0003FE
0001FE
0000FE
0000FE
0000FE
0000FE
0000FE
0000FE
0000FE
0000FE
0000FE
0001FE
FFFFFE
FFFFFC
FFFFFC
FFFFF8
FFFFF0
FFFF80
ENDCHAR
STARTCHAR 0036
ENCODING 54
SWIDTH 600 0
DWIDTH 30 0
BBX 24 39 3 0
BITMAP
0FFFF8
3FFFF8
3FFFF8
7FFFF8
7FFFF8
7FFFF8
FF0000
FF0000
FE0000
FE0000
FE0000
FE0000
FE0000
FE0000
FE0000
FE1FE0
FEFFF8
FFFFFC
FFFFFE
FFFFFE
FF81FF
FF00FF
FE007F
FE007F
FE007F
FE007F
FE007F
FE007F
FE007F
FE007F
FE007F
FE007F
7F007F
7FC1FF
7FFFFF
3FFFFF
1FFFFE
0FFFFC
03FFF0
ENDCHAR
STARTCHAR 0037
ENCODING 55
SWIDTH 540 0
DWIDTH 27 0
BBX 21 39 1 0
BITMAP
FFFF80
FFFFE0
FFFFF0
FFFFF0
FFFFF0
FFFFF0
0007F8
0007F8
0003F8
0003F8
0003F8
0003F8
0003F8
0003F8
0003F8
0003F8
0003F8
0003F8
0003F8
0003F8
0003F8
0003F8
0003F8
0003F8
0003F8
0003F8
0003F8
0003F8
0003F8
0003F8
0003F8
0003F8
0003F8
0003F8
0003F8
0003F8
0003F8
0003F8
0003F8
ENDCHAR
STARTCHAR 0038
ENCODING 56
SWIDTH 580 0
DWIDTH 29 0
BBX 24 39 3 0
BITMAP
07FFE0
1FFFFC
3FFFFE
7FFFFE
7FFFFF
FF81FF
FF00FF
FE007F
FE007F
FE007F
FE007F
FE007F
FE007F
FE007F
FE007F
FF00FF
7F81FF
7FFFFE
3FFFFC
3FFFFC
7FFFFE
7F81FE
FF00FF
FE007F
FE007F
FE007F
FE007F
FE007F
FE007F
FE007F
FE007F
FE007F
FF00FF
FF81FF
7FFFFE
7FFFFE
7FFFFC
3FFFF8
07FFE0
ENDCHAR
STARTCHAR 0039
ENCODING 57
SWIDTH 600 0
DWIDTH 30 0
BBX 24 39 3 0
BITMAP
0FFFC0
3FFFF0
7FFFFC
7FFFFC
FFFFFE
FF83FE
FF00FE
FE007F
FE007F
FE007F
FE007F
FE007F
FE007F
FE007F
FE007F
FE007F
FE007F
FF00FF
FF81FF
7FFFFF
7FFFFF
3FFFFF
1FFF7F
07F87F
00007F
00007F
00007F
00007F
00007F
00007F
00007F
0000FF
0000FF
1FFFFE
1FFFFE
1FFFFE
1FFFFC
1FFFFC
1FFFF0
ENDCHAR
STARTCHAR 003A
ENCODING 58
SWIDTH 300 0
DWIDTH 15 0
BBX 8 29 3 0
BITMAP
7E
FF
FF
FF
FF
FF
7E
00
00
00
00
00
00
00
00
00
00
00
00
00
00
00
7F
FF
FF
FF
FF
FF
7E
ENDCHAR
STARTCHAR 003B
ENCODING 59
SWIDTH 300 0
DWIDTH 15 0
BBX 8 33 3 -5
BITMAP
7E
FF
FF
FF
FF
FF
7E
00
00
00
00
00
00
00
00
00
00
00
00
00
00
00
7F
FF
FF
FF
FF
FF
7F
1E
7E
FC
F0
ENDCHAR
STARTCHAR 003C
ENCODING 60
SWIDTH 240 0
DWIDTH 12 0
BBX 8 19 2 4
BITMAP
0F
0F
1E
1E
3C
7C
78
F0
F0
F0
F0
78
78
3C
3C
1E
1E
0F
0F
ENDCHAR
STARTCHAR 003D
ENCODING 61
SWIDTH 600 0
DWIDTH 30 0
BBX 26 20 2 4
BITMAP
7FFFFFC0
FFFFFFC0
FFFFFFC0
FFFFFFC0
FFFFFFC0
FFFFFFC0
7FFFFF80
00000000
00000000
00000000
00000000
00000000
00000000
7FFFFFC0
FFFFFFC0
FFFFFFC0
FFFFFFC0
FFFFFFC0
FFFFFFC0
7FFFFF80
ENDCHAR
STARTCHAR 003E
ENCODING 62
SWIDTH 240 0
DWIDTH 12 0
BBX 8 19 2 4
BITMAP
E0
F0
F0
78
78
3C
3C
1E
1E
0F
0F
1E
1E
3C
3C
78
78
F0
E0
ENDCHAR
STARTCHAR 003F
ENCODING 63
SWIDTH 600 0
DWIDTH 30 0
BBX 20 39 7 0
BITMAP
FFFE00
FFFF80
FFFFC0
FFFFE0
FFFFE0
FFFFF0
000FF0
0007F0
0007F0
0007F0
0007F0
0007F0
0007F0
0007F0
000FF0
003FF0
0FFFF0
1FFFE0
3FFFE0
7FFFC0
7FFF80
FFF800
FF8000
FF0000
FE0000
FE0000
FE0000
FE0000
FE0000
FE0000
000000
000000
7E0000
FE0000
FE0000
FE0000
FE0000
FE0000
7C0000
ENDCHAR
STARTCHAR 0040
ENCODING 64
SWIDTH 880 0
DWIDTH 44 0
BBX 37 40 4 0
BITMAP
003FFFE000
03FFFFFE00
0FFFFFFF80
1FC0003FC0
3E000003E0
78000000F0
7000000070
7000000070
E000000038
E003FE0038
E00FFF8038
E01FFFC038
E03F07E038
E03E03E038
E03E03E038
E03E03E038
E03E03E038
E03E03E038
E03E03E038
E03FFFFFF8
E03FFFFFF8
E03FFFFFF8
E03E03E000
E03E03E000
E03E03E000
E03E03E000
E03E03E000
E03E03E000
E03E03E000
E03E03E000
E03E03E000
F000000000
7000000000
7000000000
7800000000
3C00000000
1F00000000
0FF8000000
03FFFFE000
007FFFE000
ENDCHAR
STARTCHAR 0041
ENCODING 65
SWIDTH 620 0
DWIDTH 31 0
BBX 23 39 4 0
BITMAP
03FF80
1FFFF0
3FFFF8
7FFFFC
7FFFFC
7FEFFC
FF01FE
FF01FE
FE00FE
FE00FE
FE00FE
FE00FE
FE00FE
FE00FE
FE00FE
FE00FE
FE00FE
FE00FE
FFFFFE
FFFFFE
FFFFFE
FFFFFE
FFFFFE
FE00FE
FE00FE
FE00FE
FE00FE
FE00FE
FE00FE
FE00FE
FE00FE
FE00FE
FE00FE
FE00FE
FE00FE
FE00FE
FE00FE
FE00FE
FE00FE
ENDCHAR
STARTCHAR 0042
ENCODING 66
SWIDTH 580 0
DWIDTH 29 0
BBX 23 39 4 0
BITMAP
03FFC0
1FFFF0
3FFFF8
7FFFFC
7FFFFC
7FEFFE
FF01FE
FE00FE
FE00FE
FE00FE
FE00FE
FE00FE
FE00FE
FE00FE
FE01FE
FE03FC
FFFFFC
FFFFF8
FFFFC0
FFFFF0
FFFFF8
FE03FC
FE01FE
FE01FE
FE00FE
FE00FE
FE00FE
FE00FE
FE00FE
FE00FE
FE00FE
FE01FE
FE01FE
FFFFFE
FFFFFC
FFFFFC
FFFFF8
FFFFF8
FFFFE0
ENDCHAR
STARTCHAR 0043
ENCODING 67
SWIDTH 520 0
DWIDTH 26 0
BBX 21 39 3 0
BITMAP
0FFFF8
1FFFF8
3FFFF8
7FFFF8
7FFFF8
7FFFF8
7F0000
FF0000
FE0000
FE0000
FE0000
FE0000
FE0000
FE0000
FE0000
FE0000
FE0000
FE0000
FE0000
FE0000
FE0000
FE0000
FE0000
FE0000
FE0000
FE0000
FE0000
FE0000
FE0000
FE0000
FE0000
FF0000
FF0000
7FFFF8
7FFFF8
7FFFF8
3FFFF8
3FFFF8
0FFFF8
ENDCHAR
STARTCHAR 0044
ENCODING 68
SWIDTH 580 0
DWIDTH 29 0
BBX 23 39 4 0
BITMAP
FFFFE0
FFFFF8
FFFFF8
FFFFFC
FFFFFC
FFFFFC
FE01FE
FE01FE
FE00FE
FE00FE
FE00FE
FE00FE
FE00FE
FE00FE
FE00FE
FE00FE
FE00FE
FE00FE
FE00FE
FE00FE
FE00FE
FE00FE
FE00FE
FE00FE
FE00FE
FE00FE
FE00FE
FE00FE
FE00FE
FE00FE
FE00FE
FE01FE
FE01FE
FFFFFC
FFFFFC
FFFFFC
FFFFF8
FFFFF8
FFFFE0
ENDCHAR
STARTCHAR 0045
ENCODING 69
SWIDTH 520 0
DWIDTH 26 0
BBX 21 39 3 0
BITMAP
0FFFF8
1FFFF8
3FFFF8
7FFFF8
7FFFF8
7FFFF8
7F0000
FF0000
FE0000
FE0000
FE0000
FE0000
FE0000
FE0000
FE0000
FE0000
FFFF80
FFFF80
FFFF80
FFFF80
FFFF80
FE0000
FE0000
FE0000
FE0000
FE0000
FE0000
FE0000
FE0000
FE0000
FE0000
FF0000
FF0000
7FFFF8
7FFFF8
7FFFF8
3FFFF8
3FFFF8
0FFFF8
ENDCHAR
STARTCHAR 0046
ENCODING 70
SWIDTH 520 0
DWIDTH 26 0
BBX 21 39 3 0
BITMAP
0FFFF8
1FFFF8
3FFFF8
7FFFF8
7FFFF8
7FFFF8
7F0000
FF0000
FE0000
FE0000
FE0000
FE0000
FE0000
FE0000
FE0000
FE0000
FFFF80
FFFF80
FFFF80
FFFF80
FFFF80
FE0000
FE0000
FE0000
FE0000
FE0000
FE0000
FE0000
FE0000
FE0000
FE0000
FE0000
FE0000
FE0000
FE0000
FE0000
FE0000
FE0000
FE0000
ENDCHAR
STARTCHAR 0047
ENCODING 71
SWIDTH 580 0
DWIDTH 29 0
BBX 24 39 3 0
BITMAP
0FFFF8
1FFFF8
3FFFF8
7FFFF8
7FFFF8
7FFFF8
7F0000
FF0000
FE0000
FE0000
FE0000
FE0000
FE0000
FE0000
FE0000
FE0000
FE0000
FE0000
FE0FFF
FE0FFF
FE0FFF
FE0FFF
FE0FFF
FE007F
FE007F
FE007F
FE007F
FE007F
FE007F
FE007F
FF00FF
FF00FF
FF81FF
7FFFFF
7FFFFF
7FFFFF
3FFF9F
1FFF07
07FC00
ENDCHAR
STARTCHAR 0048
ENCODING 72
SWIDTH 620 0
DWIDTH 31 0
BBX 23 39 4 0
BITMAP
FE00FE
FE00FE
FE00FE
FE00FE
FE00FE
FE00FE
FE00FE
FE00FE
FE00FE
FE00FE
FE00FE
FE00FE
FE00FE
FE00FE
FE00FE
FE00FE
FFFFFE
FFFFFE
FFFFFE
FFFFFE
FFFFFE
FE00FE
FE00FE
FE00FE
FE00FE
FE00FE
FE00FE
FE00FE
FE00FE
FE00FE
FE00FE
FE00FE
FE00FE
FE00FE
FE00FE
FE00FE
FE00FE
FE00FE
FE00FE
ENDCHAR
STARTCHAR 0049
ENCODING 73
SWIDTH 280 0
DWIDTH 14 0
BBX 7 39 4 0
BITMAP
FE
FE
FE
FE
FE
FE
FE
FE
FE
FE
FE
FE
FE
FE
FE
FE
FE
FE
FE
FE
FE
FE
FE
FE
FE
FE
FE
FE
FE
FE
FE
FE
FE
FE
FE
FE
FE
FE
FE
ENDCHAR
STARTCHAR 004A
ENCODING 74
SWIDTH 540 0
DWIDTH 27 0
BBX 21 39 1 0
BITMAP
0003F8
0003F8
0003F8
0003F8
0003F8
0003F8
0003F8
0003F8
0003F8
0003F8
0003F8
0003F8
0003F8
0003F8
0003F8
0003F8
0003F8
0003F8
0003F8
0003F8
0003F8
0003F8
0003F8
0003F8
0003F8
0003F8
0003F8
0003F8
0003F8
0003F8
0003F8
0007F8
0007F8
FFFFF0
FFFFF0
FFFFF0
FFFFE0
FFFFE0
FFFF80
ENDCHAR
STARTCHAR 004B
ENCODING 75
SWIDTH 580 0
DWIDTH 29 0
BBX 22 39 4 0
BITMAP
FE01FC
FE01F8
FE03F8
FE03F0
FE07F0
FE07E0
FE0FE0
FE0FC0
FE1FC0
FE1F80
FE3F80
FE3F00
FE7F00
FE7E00
FEFE00
FEFC00
FFFC00
FFFF80
FFFFE0
FFFFF0
FFFFF8
FFFFF8
FE07FC
FE03FC
FE01FC
FE01FC
FE01FC
FE01FC
FE01FC
FE01FC
FE01FC
FE01FC
FE01FC
FE01FC
FE01FC
FE01FC
FE01FC
FE01FC
FE01FC
ENDCHAR
STARTCHAR 004C
ENCODING 76
SWIDTH 500 0
DWIDTH 25 0
BBX 21 39 4 0
BITMAP
FE0000
FE0000
FE0000
FE0000
FE0000
FE0000
FE0000
FE0000
FE0000
FE0000
FE0000
FE0000
FE0000
FE0000
FE0000
FE0000
FE0000
FE0000
FE0000
FE0000
FE0000
FE0000
FE0000
FE0000
FE0000
FE0000
FE0000
FE0000
FE0000
FE0000
FE0000
FF0000
FF0000
7FFFF8
7FFFF8
7FFFF8
3FFFF8
3FFFF8
0FFFF8
ENDCHAR
STARTCHAR 004D
ENCODING 77
SWIDTH 940 0
DWIDTH 47 0
BBX 39 39 4 0
BITMAP
03FFFFFF80
1FFFFFFFF0
3FFFFFFFF8
7FFFFFFFFC
7FFFFFFFFC
7FEFFFEFFC
FF01FF01FE
FF01FF01FE
FE00FE00FE
FE00FE00FE
FE00FE00FE
FE00FE00FE
FE00FE00FE
FE00FE00FE
FE00FE00FE
FE00FE00FE
FE00FE00FE
FE00FE00FE
FE00FE00FE
FE00FE00FE
FE00FE00FE
FE00FE00FE
FE00FE00FE
FE00FE00FE
FE00FE00FE
FE00FE00FE
FE00FE00FE
FE00FE00FE
FE00FE00FE
FE00FE00FE
FE00FE00FE
FE00FE00FE
FE00FE00FE
FE00FE00FE
FE00FE00FE
FE00FE00FE
FE00FE00FE
FE00FE00FE
FE00FE00FE
ENDCHAR
STARTCHAR 004E
ENCODING 78
SWIDTH 620 0
DWIDTH 31 0
BBX 23 39 4 0
BITMAP
03FF80
1FFFF0
3FFFF8
7FFFFC
7FFFFC
7FEFFC
FF01FE
FF01FE
FE00FE
FE00FE
FE00FE
FE00FE
FE00FE
FE00FE
FE00FE
FE00FE
FE00FE
FE00FE
FE00FE
FE00FE
FE00FE
FE00FE
FE00FE
FE00FE
FE00FE
FE00FE
FE00FE
FE00FE
FE00FE
FE00FE
FE00FE
FE00FE
FE00FE
FE00FE
FE00FE
FE00FE
FE00FE
FE00FE
FE00FE
ENDCHAR
STARTCHAR 004F
ENCODING 79
SWIDTH 600 0
DWIDTH 30 0
BBX 24 39 3 0
BITMAP
03FFC0
0FFFF0
3FFFFC
3FFFFC
7FFFFE
7FEFFE
FF00FF
FF00FF
FE007F
FE007F
FE007F
FE007F
FE007F
FE007F
FE007F
FE007F
FE007F
FE007F
FE007F
FE007F
FE007F
FE007F
FE007F
FE007F
FE007F
FE007F
FE007F
FE007F
FE007F
FE007F
FF007F
FF00FF
7F80FE
7FE7FE
7FFFFE
7FFFFC
3FFFFC
1FFFF8
03FFC0
ENDCHAR
STARTCHAR 0050
ENCODING 80
SWIDTH 560 0
DWIDTH 28 0
BBX 23 39 4 0
BITMAP
03FF80
1FFFE0
3FFFF0
7FFFF8
7FFFFC
7FEFFC
FF01FC
FF01FE
FE00FE
FE00FE
FE00FE
FE00FE
FE00FE
FE00FE
FE00FE
FE00FE
FE00FE
FE00FE
FE01FE
FE03FE
FFFFFC
FFFFFC
FFFFFC
FFFFF8
FFFFE0
FE0000
FE0000
FE0000
FE0000
FE0000
FE0000
FE0000
FE0000
FE0000
FE0000
FE0000
FE0000
FE0000
FE0000
ENDCHAR
STARTCHAR 0051
ENCODING 81
SWIDTH 600 0
DWIDTH 30 0
BBX 24 44 3 -5
BITMAP
03FFC0
0FFFF0
3FFFFC
3FFFFC
7FFFFE
7FEFFE
FF01FF
FF00FF
FE007F
FE007F
FE007F
FE007F
FE007F
FE007F
FE007F
FE007F
FE007F
FE007F
FE007F
FE007F
FE007F
FE007F
FE007F
FE007F
FE007F
FE007F
FE007F
FE007F
FE007F
FE007F
FE007F
FF00FF
FF00FF
7F81FE
7FFFFE
7FFFFE
3FFFFC
1FFFF8
0FFFE0
00FE00
00FE00
00FE00
00FE00
00FE00
ENDCHAR
STARTCHAR 0052
ENCODING 82
SWIDTH 580 0
DWIDTH 29 0
BBX 22 39 4 0
BITMAP
03FF80
1FFFE0
3FFFF0
7FFFF8
7FFFF8
7FFFFC
FF03FC
FE01FC
FE01FC
FE01FC
FE01FC
FE01FC
FE01FC
FE01FC
FE01FC
FE03FC
FE03F8
FFFFF8
FFFFF0
FFFFC0
FFFFF0
FFFFF8
FE07FC
FE03FC
FE01FC
FE01FC
FE01FC
FE01FC
FE01FC
FE01FC
FE01FC
FE01FC
FE01FC
FE01FC
FE01FC
FE01FC
FE01FC
FE01FC
FE01FC
ENDCHAR
STARTCHAR 0053
ENCODING 83
SWIDTH 580 0
DWIDTH 29 0
BBX 23 39 3 0
BITMAP
03FFF8
1FFFF8
3FFFF8
7FFFF8
7FFFF8
FFFFF8
FF0000
FE0000
FE0000
FE0000
FE0000
FE0000
FE0000
FF0000
FF0000
FF8000
7FFFC0
7FFFF0
3FFFF8
1FFFFC
0FFFFC
0003FE
0001FE
0001FE
0000FE
0000FE
0000FE
0000FE
0000FE
0000FE
0000FE
0000FE
0001FE
3FFFFE
3FFFFC
3FFFFC
3FFFF8
3FFFF0
3FFF80
ENDCHAR
STARTCHAR 0054
ENCODING 84
SWIDTH 440 0
DWIDTH 22 0
BBX 21 39 0 0
BITMAP
FFFFF8
FFFFF8
FFFFF8
FFFFF8
FFFFF8
FFFFF8
01FC00
01FC00
01FC00
01FC00
01FC00
01FC00
01FC00
01FC00
01FC00
01FC00
01FC00
01FC00
01FC00
01FC00
01FC00
01FC00
01FC00
01FC00
01FC00
01FC00
01FC00
01FC00
01FC00
01FC00
01FC00
01FC00
01FC00
01FC00
01FC00
01FC00
01FC00
01FC00
01FC00
ENDCHAR
STARTCHAR 0055
ENCODING 85
SWIDTH 620 0
DWIDTH 31 0
BBX 23 39 4 0
BITMAP
FE00FE
FE00FE
FE00FE
FE00FE
FE00FE
FE00FE
FE00FE
FE00FE
FE00FE
FE00FE
FE00FE
FE00FE
FE00FE
FE00FE
FE00FE
FE00FE
FE00FE
FE00FE
FE00FE
FE00FE
FE00FE
FE00FE
FE00FE
FE00FE
FE00FE
FE00FE
FE00FE
FE00FE
FE00FE
FE00FE
FE00FE
FE00FE
FF01FE
FF83FE
7FFFFC
7FFFFC
3FFFF8
3FFFF0
07FFC0
ENDCHAR
STARTCHAR 0056
ENCODING 86
SWIDTH 520 0
DWIDTH 26 0
BBX 24 39 1 0
BITMAP
FF007F
7F007F
7F007F
7F00FE
7F00FE
7F80FE
3F80FE
3F80FE
3F80FC
3F81FC
3FC1FC
1FC1FC
1FC1F8
1FC1F8
1FC1F8
0FE3F8
0FE3F8
0FE3F0
0FE3F0
0FE3F0
07F3F0
07F7F0
07F7E0
07F7E0
03F7E0
03FFE0
03FFE0
03FFC0
03FFC0
01FFC0
01FFC0
01FFC0
01FF80
00FF80
00FF80
00FF80
00FF00
00FF00
007F00
ENDCHAR
STARTCHAR 0057
ENCODING 87
SWIDTH 860 0
DWIDTH 43 0
BBX 41 39 1 0
BITMAP
FF007F003F80
7F007F803F80
7F007F807F00
7F00FF807F00
7F00FF807F00
7F80FF807F00
3F80FFC07F00
3F80FFC07E00
3F80FFC0FE00
3F80FFC0FE00
1FC1FFC0FE00
1FC1FFE0FE00
1FC1FFE0FC00
1FC1FFE0FC00
1FC1FFE1FC00
0FE1FFE1FC00
0FE3FFF1FC00
0FE3F7F1F800
0FE3F7F1F800
07E3F7F1F800
07F3F7F3F800
07F3F3FBF000
07F7E3FBF000
07F7E3FBF000
03F7E3FBF000
03FFE1FBF000
03FFE1FFE000
03FFC1FFE000
01FFC1FFE000
01FFC1FFE000
01FFC0FFE000
01FFC0FFC000
01FF80FFC000
00FF80FFC000
00FF807FC000
00FF807FC000
00FF807F8000
007F007F8000
007F007F8000
ENDCHAR
STARTCHAR 0058
ENCODING 88
SWIDTH 560 0
DWIDTH 28 0
BBX 24 39 2 0
BITMAP
FF007F
7F00FE
7F80FE
3F80FE
3F81FC
1FC1FC
1FC3F8
1FE3F8
0FE7F0
0FE7F0
07F7F0
07FFE0
03FFE0
03FFC0
03FFC0
01FF80
01FF80
00FF80
00FF00
007F00
00FF00
00FF80
01FF80
01FF80
03FFC0
03FFC0
03FFE0
07FFE0
07FFF0
0FE7F0
0FE7F0
1FE3F8
1FC3F8
1FC1FC
3F81FC
3F80FE
7F00FE
7F00FE
FF007F
ENDCHAR
STARTCHAR 0059
ENCODING 89
SWIDTH 560 0
DWIDTH 28 0
BBX 24 39 2 0
BITMAP
FE007F
FE007F
FE007F
FE007F
FE007F
FE007F
FE007F
FE007F
FE007F
FE007F
FE007F
FE007F
FE007F
FE007F
FE007F
FE007F
FE007F
FF00FF
FF81FF
FFFFFF
7FFFFE
7FFFFE
3FFFFC
0FFFF0
007F00
007F00
007F00
007F00
007F00
007F00
007F00
007F00
007F00
007F00
007F00
007F00
007F00
007F00
007F00
ENDCHAR
STARTCHAR 005A
ENCODING 90
SWIDTH 460 0
DWIDTH 23 0
BBX 21 39 1 0
BITMAP
7FFFF8
7FFFF8
7FFFF8
7FFFF8
7FFFF8
7FFFF8
0003F8
0007F0
0007F0
000FE0
000FE0
001FC0
001FC0
003F80
003F80
007F00
007F00
00FE00
00FE00
01FE00
01FC00
03FC00
03F800
07F800
07F000
0FF000
0FE000
1FE000
1FC000
3FC000
3F8000
7F8000
7F0000
FFFFF8
FFFFF8
FFFFF8
FFFFF8
FFFFF8
FFFFF8
ENDCHAR
STARTCHAR 005B
ENCODING 91
SWIDTH 300 0
DWIDTH 15 0
BBX 10 39 3 0
BITMAP
FFC0
FFC0
FC00
FC00
FC00
FC00
FC00
FC00
FC00
FC00
FC00
FC00
FC00
FC00
FC00
FC00
FC00
FC00
FC00
FC00
FC00
FC00
FC00
FC00
FC00
FC00
FC00
FC00
FC00
FC00
FC00
FC00
FC00
FC00
FC00
FC00
FC00
FFC0
FFC0
ENDCHAR
STARTCHAR 005C
ENCODING 92
SWIDTH 300 0
DWIDTH 15 0
BBX 14 39 0 0
BITMAP
F000
7000
7800
7800
7800
3800
3C00
3C00
3C00
1C00
1E00
1E00
0E00
0F00
0F00
0F00
0700
0780
0780
0780
0380
03C0
03C0
03C0
01C0
01E0
01E0
01E0
00E0
00F0
00F0
0070
0078
0078
0078
0038
003C
003C
003C
ENDCHAR
STARTCHAR 005D
ENCODING 93
SWIDTH 300 0
DWIDTH 15 0
BBX 10 39 1 0
BITMAP
FFC0
FFC0
0FC0
0FC0
0FC0
0FC0
0FC0
0FC0
0FC0
0FC0
0FC0
0FC0
0FC0
0FC0
0FC0
0FC0
0FC0
0FC0
0FC0
0FC0
0FC0
0FC0
0FC0
0FC0
0FC0
0FC0
0FC0
0FC0
0FC0
0FC0
0FC0
0FC0
0FC0
0FC0
0FC0
0FC0
0FC0
FFC0
FFC0
ENDCHAR
STARTCHAR 005E
ENCODING 94
SWIDTH 360 0
DWIDTH 18 0
BBX 15 8 1 30
BITMAP
07E0
0FE0
1FF0
1FF8
3FF8
7E7C
783E
F01E
ENDCHAR
STARTCHAR 005F
ENCODING 95
SWIDTH 580 0
DWIDTH 29 0
BBX 29 2 0 -6
BITMAP
FFFFFFF8
FFFFFFF8
ENDCHAR
STARTCHAR 0060
ENCODING 96
SWIDTH 240 0
DWIDTH 12 0
BBX 9 8 1 30
BITMAP
FC00
FE00
7E00
3F00
3F00
1F80
0F80
0F80
ENDCHAR
STARTCHAR 0061
ENCODING 97
SWIDTH 620 0
DWIDTH 31 0
BBX 23 29 4 0
BITMAP
07FFC0
1FFFF0
7FFFF8
7FFFFC
FF03FC
FE01FE
FE00FE
FE00FE
FE00FE
FE00FE
FE00FE
FE00FE
FE00FE
FFFFFE
FFFFFE
FFFFFE
FFFFFE
FE00FE
FE00FE
FE00FE
FE00FE
FE00FE
FE00FE
FE00FE
FE00FE
FE00FE
FE00FE
FE00FE
FE00FE
ENDCHAR
STARTCHAR 0062
ENCODING 98
SWIDTH 580 0
DWIDTH 29 0
BBX 23 29 4 0
BITMAP
07FFC0
1FFFF8
7FFFFC
7FFFFC
FF03FE
FF01FE
FE00FE
FE00FE
FE00FE
FE00FE
FE00FE
FE01FE
FFFFFC
FFFFF0
FFFFE0
FFFFF8
FE03FC
FE01FE
FE00FE
FE00FE
FE00FE
FE00FE
FE00FE
FE01FE
FE03FE
FFFFFC
FFFFFC
FFFFF8
FFFFE0
ENDCHAR
STARTCHAR 0063
ENCODING 99
SWIDTH 520 0
DWIDTH 26 0
BBX 21 29 3 0
BITMAP
0FFFF8
3FFFF8
7FFFF8
7FFFF8
7F8000
FF0000
FE0000
FE0000
FE0000
FE0000
FE0000
FE0000
FE0000
FE0000
FE0000
FE0000
FE0000
FE0000
FE0000
FE0000
FE0000
FE0000
FE0000
FF0000
7F8000
7FFFF8
7FFFF8
3FFFF8
1FFFF8
ENDCHAR
STARTCHAR 0064
ENCODING 100
SWIDTH 580 0
DWIDTH 29 0
BBX 23 29 4 0
BITMAP
FFFFE0
FFFFF8
FFFFFC
FFFFFC
FE03FC
FE01FE
FE00FE
FE00FE
FE00FE
FE00FE
FE00FE
FE00FE
FE00FE
FE00FE
FE00FE
FE00FE
FE00FE
FE00FE
FE00FE
FE00FE
FE00FE
FE00FE
FE00FE
FE01FE
FE03FE
FFFFFC
FFFFFC
FFFFF8
FFFFF0
ENDCHAR
STARTCHAR 0065
ENCODING 101
SWIDTH 520 0
DWIDTH 26 0
BBX 21 29 3 0
BITMAP
0FFFF8
3FFFF8
7FFFF8
7FFFF8
7F8000
FF0000
FE0000
FE0000
FE0000
FE0000
FE0000
FE0000
FFFF80
FFFF80
FFFF80
FFFF80
FE0000
FE0000
FE0000
FE0000
FE0000
FE0000
FE0000
FF0000
7F8000
7FFFF8
7FFFF8
3FFFF8
1FFFF8
ENDCHAR
STARTCHAR 0066
ENCODING 102
SWIDTH 520 0
DWIDTH 26 0
BBX 21 29 3 0
BITMAP
0FFFF8
3FFFF8
7FFFF8
7FFFF8
7F8000
FF0000
FE0000
FE0000
FE0000
FE0000
FE0000
FE0000
FFFF80
FFFF80
FFFF80
FFFF80
FE0000
FE0000
FE0000
FE0000
FE0000
FE0000
FE0000
FE0000
FE0000
FE0000
FE0000
FE0000
FE0000
ENDCHAR
STARTCHAR 0067
ENCODING 103
SWIDTH 580 0
DWIDTH 29 0
BBX 24 29 3 0
BITMAP
0FFFF8
3FFFF8
7FFFF8
7FFFF8
7F8000
FF0000
FE0000
FE0000
FE0000
FE0000
FE0000
FE0000
FE0000
FE0FFF
FE0FFF
FE0FFF
FE0FFF
FE007F
FE007F
FE007F
FE007F
FE007F
FE007F
FF00FF
FF83FF
7FFFFF
7FFFFF
3FFF8F
0FFE01
ENDCHAR
STARTCHAR 0068
ENCODING 104
SWIDTH 620 0
DWIDTH 31 0
BBX 23 29 4 0
BITMAP
FE00FE
FE00FE
FE00FE
FE00FE
FE00FE
FE00FE
FE00FE
FE00FE
FE00FE
FE00FE
FE00FE
FE00FE
FFFFFE
FFFFFE
FFFFFE
FFFFFE
FE00FE
FE00FE
FE00FE
FE00FE
FE00FE
FE00FE
FE00FE
FE00FE
FE00FE
FE00FE
FE00FE
FE00FE
FE00FE
ENDCHAR
STARTCHAR 0069
ENCODING 105
SWIDTH 280 0
DWIDTH 14 0
BBX 7 29 4 0
BITMAP
FE
FE
FE
FE
FE
FE
FE
FE
FE
FE
FE
FE
FE
FE
FE
FE
FE
FE
FE
FE
FE
FE
FE
FE
FE
FE
FE
FE
FE
ENDCHAR
STARTCHAR 006A
ENCODING 106
SWIDTH 540 0
DWIDTH 27 0
BBX 21 29 1 0
BITMAP
0003F8
0003F8
0003F8
0003F8
0003F8
0003F8
0003F8
0003F8
0003F8
0003F8
0003F8
0003F8
0003F8
0003F8
0003F8
0003F8
0003F8
0003F8
0003F8
0003F8
0003F8
0003F8
0003F8
0007F8
000FF8
FFFFF0
FFFFF0
FFFFE0
FFFFC0
ENDCHAR
STARTCHAR 006B
ENCODING 107
SWIDTH 580 0
DWIDTH 29 0
BBX 22 29 4 1
BITMAP
FE01F8
FE03F8
FE03F0
FE07E0
FE0FE0
FE0FC0
FE1F80
FE3F80
FE7F00
FE7E00
FEFC00
FFFC00
FFFF80
FFFFE0
FFFFF8
FFFFF8
FE07FC
FE01FC
FE01FC
FE01FC
FE01FC
FE01FC
FE01FC
FE01FC
FE01FC
FE01FC
FE01FC
FE01FC
FE01FC
ENDCHAR
STARTCHAR 006C
ENCODING 108
SWIDTH 500 0
DWIDTH 25 0
BBX 21 29 4 0
BITMAP
FE0000
FE0000
FE0000
FE0000
FE0000
FE0000
FE0000
FE0000
FE0000
FE0000
FE0000
FE0000
FE0000
FE0000
FE0000
FE0000
FE0000
FE0000
FE0000
FE0000
FE0000
FE0000
FE0000
FF0000
7F8000
7FFFF8
7FFFF8
3FFFF8
1FFFF8
ENDCHAR
STARTCHAR 006D
ENCODING 109
SWIDTH 940 0
DWIDTH 47 0
BBX 39 29 4 0
BITMAP
07FFFFFFC0
1FFFFFFFF0
7FFFFFFFF8
7FFFFFFFFC
7F03FF03FC
FF01FF01FE
FE00FE00FE
FE00FE00FE
FE00FE00FE
FE00FE00FE
FE00FE00FE
FE00FE00FE
FE00FE00FE
FE00FE00FE
FE00FE00FE
FE00FE00FE
FE00FE00FE
FE00FE00FE
FE00FE00FE
FE00FE00FE
FE00FE00FE
FE00FE00FE
FE00FE00FE
FE00FE00FE
FE00FE00FE
FE00FE00FE
FE00FE00FE
FE00FE00FE
FE00FE00FE
ENDCHAR
STARTCHAR 006E
ENCODING 110
SWIDTH 620 0
DWIDTH 31 0
BBX 23 29 4 0
BITMAP
07FFC0
1FFFF0
7FFFF8
7FFFFC
FF03FC
FF01FE
FE00FE
FE00FE
FE00FE
FE00FE
FE00FE
FE00FE
FE00FE
FE00FE
FE00FE
FE00FE
FE00FE
FE00FE
FE00FE
FE00FE
FE00FE
FE00FE
FE00FE
FE00FE
FE00FE
FE00FE
FE00FE
FE00FE
FE00FE
ENDCHAR
STARTCHAR 006F
ENCODING 111
SWIDTH 600 0
DWIDTH 30 0
BBX 24 29 3 0
BITMAP
03FFE0
1FFFF8
3FFFFC
7FFFFE
7F81FE
FF00FF
FE007F
FE007F
FE007F
FE007F
FE007F
FE007F
FE007F
FE007F
FE007F
FE007F
FE007F
FE007F
FE007F
FE007F
FE007F
FE007F
FE007F
FF00FF
7F81FE
7FFFFE
3FFFFC
1FFFF8
07FFE0
ENDCHAR
STARTCHAR 0070
ENCODING 112
SWIDTH 560 0
DWIDTH 28 0
BBX 23 29 4 0
BITMAP
07FF80
1FFFF0
7FFFF8
7FFFFC
FF03FC
FF01FE
FE00FE
FE00FE
FE00FE
FE00FE
FE00FE
FE00FE
FE00FE
FE01FE
FFFFFE
FFFFFC
FFFFF8
FFFFF0
FE0000
FE0000
FE0000
FE0000
FE0000
FE0000
FE0000
FE0000
FE0000
FE0000
FE0000
ENDCHAR
STARTCHAR 0071
ENCODING 113
SWIDTH 600 0
DWIDTH 30 0
BBX 24 32 3 -4
BITMAP
03FFC0
1FFFF8
3FFFFC
7FFFFE
7F81FE
FF00FF
FE007F
FE007F
FE007F
FE007F
FE007F
FE007F
FE007F
FE007F
FE007F
FE007F
FE007F
FE007F
FE007F
FE007F
FE007F
FE007F
FE007F
FF00FF
FF81FE
7FFFFE
7FFFFE
3FFFFC
0FFFF0
00FE00
00FE00
00FE00
ENDCHAR
STARTCHAR 0072
ENCODING 114
SWIDTH 580 0
DWIDTH 29 0
BBX 22 29 4 0
BITMAP
07FFC0
3FFFF0
7FFFF8
7FFFF8
FF03FC
FE01FC
FE01FC
FE01FC
FE01FC
FE01FC
FE01FC
FE03FC
FFFFF8
FFFFE0
FFFFF0
FFFFF8
FE07FC
FE01FC
FE01FC
FE01FC
FE01FC
FE01FC
FE01FC
FE01FC
FE01FC
FE01FC
FE01FC
FE01FC
FE01FC
ENDCHAR
STARTCHAR 0073
ENCODING 115
SWIDTH 580 0
DWIDTH 29 0
BBX 23 29 3 0
BITMAP
07FFF8
3FFFF8
7FFFF8
7FFFF8
FFC000
FE0000
FE0000
FE0000
FE0000
FE0000
FF0000
FF8000
7FFFE0
7FFFF8
3FFFFC
0FFFFE
0003FE
0001FE
0000FE
0000FE
0000FE
0000FE
0000FE
0000FE
0003FE
3FFFFC
3FFFFC
3FFFF8
3FFFC0
ENDCHAR
STARTCHAR 0074
ENCODING 116
SWIDTH 440 0
DWIDTH 22 0
BBX 21 29 0 0
BITMAP
FFFFF8
FFFFF8
FFFFF8
FFFFF8
01FC00
01FC00
01FC00
01FC00
01FC00
01FC00
01FC00
01FC00
01FC00
01FC00
01FC00
01FC00
01FC00
01FC00
01FC00
01FC00
01FC00
01FC00
01FC00
01FC00
01FC00
01FC00
01FC00
01FC00
01FC00
ENDCHAR
STARTCHAR 0075
ENCODING 117
SWIDTH 620 0
DWIDTH 31 0
BBX 23 29 4 1
BITMAP
FE00FE
FE00FE
FE00FE
FE00FE
FE00FE
FE00FE
FE00FE
FE00FE
FE00FE
FE00FE
FE00FE
FE00FE
FE00FE
FE00FE
FE00FE
FE00FE
FE00FE
FE00FE
FE00FE
FE00FE
FE00FE
FE00FE
FE00FE
FF00FE
FF01FE
7FFFFC
7FFFFC
3FFFF8
0FFFC0
ENDCHAR
STARTCHAR 0076
ENCODING 118
SWIDTH 520 0
DWIDTH 26 0
BBX 24 29 1 0
BITMAP
FF007F
7F007F
7F00FE
7F00FE
3F80FE
3F80FE
3F80FC
3F81FC
1FC1FC
1FC1F8
1FC1F8
0FE3F8
0FE3F8
0FE3F0
0FE3F0
07F3F0
07F7E0
07F7E0
03F7E0
03FFE0
03FFC0
01FFC0
01FFC0
01FF80
01FF80
00FF80
00FF80
00FF00
007F00
ENDCHAR
STARTCHAR 0077
ENCODING 119
SWIDTH 860 0
DWIDTH 43 0
BBX 41 29 1 0
BITMAP
FF007F003F80
7F007F803F80
7F007F807F00
7F00FF807F00
3F80FF807F00
3F80FFC07E00
3F80FFC0FE00
3F81FFC0FE00
1FC1FFE0FE00
1FC1FFE0FC00
1FC1FFE0FC00
0FE1FFE1FC00
0FE3FFF1F800
0FE3F7F1F800
07E3F7F1F800
07F3F3F3F800
07F7F3FBF000
07F7E3FBF000
03FFE3FBF000
03FFE1FBE000
03FFC1FFE000
01FFC1FFE000
01FFC0FFE000
01FFC0FFC000
00FF80FFC000
00FF807FC000
00FF807FC000
00FF807F8000
007F007F8000
ENDCHAR
STARTCHAR 0078
ENCODING 120
SWIDTH 560 0
DWIDTH 28 0
BBX 24 29 2 0
BITMAP
FF007F
7F00FE
3F80FE
3F81FC
1FC3FC
1FE3F8
0FE7F0
07F7F0
07FFE0
03FFE0
03FFC0
01FF80
01FF80
00FF00
007F00
00FF00
01FF80
01FF80
03FFC0
03FFE0
07FFE0
07F7F0
0FE7F0
1FE3F8
1FC3FC
3F81FC
3F80FE
7F00FE
FF007F
ENDCHAR
STARTCHAR 0079
ENCODING 121
SWIDTH 560 0
DWIDTH 28 0
BBX 24 29 2 -1
BITMAP
FE007F
FE007F
FE007F
FE007F
FE007F
FE007F
FE007F
FE007F
FE007F
FE007F
FE007F
FE007F
FF00FF
FF81FF
FFFFFF
7FFFFE
7FFFFC
1FFFF8
007F00
007F00
007F00
007F00
007F00
007F00
007F00
007F00
007F00
007F00
007F00
ENDCHAR
STARTCHAR 007A
ENCODING 122
SWIDTH 460 0
DWIDTH 23 0
BBX 21 29 1 0
BITMAP
7FFFF8
7FFFF8
7FFFF8
7FFFF8
0003F8
0007F0
0007F0
000FE0
001FC0
001FC0
003F80
007F00
007F00
00FE00
01FE00
01FC00
03F800
07F800
07F000
0FE000
1FE000
1FC000
3F8000
7F8000
7F0000
FFFFF8
FFFFF8
FFFFF8
FFFFF8
ENDCHAR
STARTCHAR 007B
ENCODING 123
SWIDTH 300 0
DWIDTH 15 0
BBX 14 39 -1 0
BITMAP
0FFC
0FFC
0FC0
0FC0
0FC0
0FC0
0FC0
0FC0
0FC0
0FC0
0FC0
0FC0
0FC0
0FC0
0FC0
1FC0
3FC0
FFC0
3FC0
1FC0
1FC0
0FC0
0FC0
0FC0
0FC0
0FC0
0FC0
0FC0
0FC0
0FC0
0FC0
0FC0
0FC0
0FC0
0FC0
0FC0
0FC0
0FFC
0FFC
ENDCHAR
STARTCHAR 007C
ENCODING 124
SWIDTH 260 0
DWIDTH 13 0
BBX 6 48 4 -5
BITMAP
FC
FC
FC
FC
FC
FC
FC
FC
FC
FC
FC
FC
FC
FC
FC
FC
FC
FC
FC
FC
FC
FC
FC
FC
FC
FC
FC
FC
FC
FC
FC
FC
FC
FC
FC
FC
FC
FC
FC
FC
FC
FC
FC
FC
FC
FC
FC
FC
ENDCHAR
STARTCHAR 007D
ENCODING 125
SWIDTH 300 0
DWIDTH 15 0
BBX 14 39 1 0
BITMAP
FFC0
FFC0
0FC0
0FC0
0FC0
0FC0
0FC0
0FC0
0FC0
0FC0
0FC0
0FC0
0FC0
0FC0
0FC0
0FE0
0FF0
0FFC
0FF0
0FE0
0FE0
0FC0
0FC0
0FC0
0FC0
0FC0
0FC0
0FC0
0FC0
0FC0
0FC0
0FC0
0FC0
0FC0
0FC0
0FC0
0FC0
FFC0
FFC0
ENDCHAR
STARTCHAR 007E
ENCODING 126
SWIDTH 380 0
DWIDTH 19 0
BBX 17 5 1 32
BITMAP
1F0180
3FE380
7FFF00
FFFF00
FFFC00
ENDCHAR
STARTCHAR 00A0
ENCODING 160
SWIDTH 600 0
DWIDTH 30 0
BBX 0 0 0 0
BITMAP
ENDCHAR
STARTCHAR 00A1
ENCODING 161
SWIDTH 300 0
DWIDTH 15 0
BBX 8 40 3 -1
BITMAP
7E
FF
FF
FF
FF
FF
7E
00
00
FF
FF
FF
FF
FF
FF
FF
FF
FF
FF
FF
FF
FF
FF
FF
FF
FF
FF
FF
FF
FF
FF
FF
FF
FF
FF
FF
FF
FF
FF
7E
ENDCHAR
STARTCHAR 00A2
ENCODING 162
SWIDTH 600 0
DWIDTH 30 0
BBX 18 33 6 2
BITMAP
00F000
00F000
00F000
00F000
00F000
1FFFC0
3FFFC0
7FFFC0
7F0000
FE0000
FE0000
FE0000
FE0000
FE0000
FE0000
FE0000
FE0000
FE0000
FE0000
FE0000
FE0000
FE0000
FF0000
FF0000
7FFFC0
7FFFC0
3FFFC0
1FFFC0
00F000
00F000
00F000
00F000
00F000
ENDCHAR
STARTCHAR 00A3
ENCODING 163
SWIDTH 840 0
DWIDTH 42 0
BBX 37 39 2 0
BITMAP
00000FFF00
00007FFFE0
0000FFFFF0
0001FFFFF0
0003FFFFF8
0007FF3FF8
0007F807F8
000FF007F8
000FF007F8
000FE007F8
000FE007F0
001FE007F0
001FC007F0
001FC00000
001FC00000
003FC00000
07FFFE0000
07FFFE0000
0FFFFE0000
0FFFFC0000
0FFFFC0000
007F000000
007F000000
007F000000
00FF000000
00FE000000
00FE000000
00FE000000
00FE000000
01FE000000
01FC000000
01FC000000
01FC000000
FFFFFFF800
FFFFFFF800
FFFFFFF800
FFFFFFF800
FFFFFFF800
FFFFFFF800
ENDCHAR
STARTCHAR 00A4
ENCODING 164
SWIDTH 540 0
DWIDTH 27 0
BBX 18 24 5 14
BITMAP
7C0780
3E0F00
1F1F00
1FBE00
0FFE00
3FFF80
7FFF80
FFFFC0
FFFFC0
F001C0
E000C0
E000C0
E000C0
E000C0
F001C0
FFFFC0
FFFFC0
7FFF80
7FFF80
0FFE00
1FBE00
3F1F00
3E0F00
7C0780
ENDCHAR
STARTCHAR 00A5
ENCODING 165
SWIDTH 560 0
DWIDTH 28 0
BBX 24 39 2 0
BITMAP
FE007F
FE007F
FE007F
FE007F
FE007F
FE007F
FE007F
FE007F
FE007F
FE007F
FF00FF
FF81FF
FFFFFF
7FFFFE
7FFFFE
3FFFFC
0FFFF0
007F00
007F00
007F00
FFFFFF
FFFFFF
FFFFFF
FFFFFF
007F00
007F00
FFFFFF
FFFFFF
FFFFFF
FFFFFF
007F00
007F00
007F00
007F00
007F00
007F00
007F00
007F00
007F00
ENDCHAR
STARTCHAR 00A7
ENCODING 167
SWIDTH 660 0
DWIDTH 33 0
BBX 28 39 3 0
BITMAP
000FFFF0
003FFFF0
007FFFF0
00FFFFE0
00FFFFE0
01FFFFE0
01FC0000
03F80000
03F80000
07F00000
07F00000
07F00000
0FFFFF00
0FFFFFC0
0FFFFFC0
0FFFFFC0
1FFFFFC0
1FC03FC0
1FC03FC0
1FC01FC0
1FC01FC0
3FC03FC0
3FC03F80
3FFFFF80
3FFFFF80
3FFFFF80
1FFFFF00
0FFFFF00
0000FF00
0000FE00
0000FE00
0001FE00
0003FC00
3FFFFC00
3FFFF800
7FFFF800
7FFFF000
7FFFE000
FFFF8000
ENDCHAR
STARTCHAR 00A8
ENCODING 168
SWIDTH 340 0
DWIDTH 17 0
BBX 16 6 0 32
BITMAP
7C3E
FE7F
FE7F
FE7F
FE7F
7C3E
ENDCHAR
STARTCHAR 00A9
ENCODING 169
SWIDTH 500 0
DWIDTH 25 0
BBX 22 23 2 16
BITMAP
07FF80
3FFFF0
780078
600018
C1FF0C
C3FF0C
C7C00C
C7800C
C7800C
C7800C
C7800C
C7800C
C7800C
C7800C
C7800C
C7C00C
C7FF0C
C3FF0C
E0000C
600018
780078
1FFFF0
07FF80
ENDCHAR
STARTCHAR 00AB
ENCODING 171
SWIDTH 400 0
DWIDTH 20 0
BBX 16 19 2 4
BITMAP
0F0F
0F1E
1E1E
1E3C
3C3C
7C78
7878
F0F0
F0F0
F0F0
F0F0
7878
7878
3C3C
3C3C
1E1E
1E1E
0F0F
0F0F
ENDCHAR
STARTCHAR 00AC
ENCODING 172
SWIDTH 780 0
DWIDTH 39 0
BBX 31 11 4 6
BITMAP
FFFFFFFE
FFFFFFFE
FFFFFFFE
FFFFFFFE
FFFFFFFE
FFFFFFFE
0000007E
0000007E
0000007E
0000007E
0000007E
ENDCHAR
STARTCHAR 00AE
ENCODING 174
SWIDTH 500 0
DWIDTH 25 0
BBX 22 23 2 16
BITMAP
07FF80
3FFFF0
780078
600018
C1FE0C
C3FF8C
C7878C
C7878C
C7878C
C7878C
C7FF0C
C7FF0C
C7878C
C7878C
C7878C
C7878C
C7878C
C7878C
E0000C
600018
780078
1FFFF0
07FF80
ENDCHAR
STARTCHAR 00AF
ENCODING 175
SWIDTH 340 0
DWIDTH 17 0
BBX 15 4 1 32
BITMAP
FFFE
FFFE
FFFE
FFFE
ENDCHAR
STARTCHAR 00B0
ENCODING 176
SWIDTH 600 0
DWIDTH 30 0
BBX 14 14 8 25
BITMAP
0FC0
1FE0
3FF0
7FF8
F03C
E01C
E01C
E01C
E01C
F03C
7878
3FF0
1FE0
0FC0
ENDCHAR
STARTCHAR 00B1
ENCODING 177
SWIDTH 600 0
DWIDTH 30 0
BBX 26 38 2 0
BITMAP
001E0000
007F0000
007F0000
007F0000
007F0000
007F0000
007F0000
007F0000
007F0000
007F0000
7FFFFF80
FFFFFFC0
FFFFFFC0
FFFFFFC0
FFFFFFC0
FFFFFFC0
FFFFFF80
007F0000
007F0000
007F0000
007F0000
007F0000
007F0000
007F0000
007F0000
007F0000
001C0000
00000000
00000000
00000000
00000000
FFFFFF80
FFFFFFC0
FFFFFFC0
FFFFFFC0
FFFFFFC0
FFFFFFC0
7FFFFF80
ENDCHAR
STARTCHAR 00B4
ENCODING 180
SWIDTH 240 0
DWIDTH 12 0
BBX 10 8 1 30
BITMAP
1FC0
1F80
3F00
3F00
7E00
7C00
FC00
F800
ENDCHAR
STARTCHAR 00B5
ENCODING 181
SWIDTH 600 0
DWIDTH 30 0
BBX 24 39 2 0
BITMAP
03FFFF
1FFFFF
3FFFFF
7FFFFF
7FFFFF
7FFFFF
FF0000
FE0000
FE0000
FE0000
FE0000
FE0000
FE0000
FE0000
FE0000
FE0000
FE007F
FE007F
FF007F
FF00FF
FFC1FF
7FFFFF
7FFFFF
3FFFFF
1FFF7F
07FC7F
00007F
00007F
00007F
00007F
00007F
00007F
0000FF
1FFFFF
1FFFFE
1FFFFE
1FFFFC
1FFFF8
1FFFC0
ENDCHAR
STARTCHAR 00B6
ENCODING 182
SWIDTH 600 0
DWIDTH 30 0
BBX 22 47 4 -8
BITMAP
03FF00
1FFFE0
3FFFF0
7FFFF8
FFFFF8
FFFFF8
FFFFFC
FFFFFC
FFFFFC
FFFFFC
FFFFFC
FFFFFC
FFFFFC
FFFFFC
FFFFFC
7FFFFC
7FFFFC
3FFFFC
1FFFFC
0FFFFC
00FFFC
0001FC
0001FC
0001FC
0001FC
0001FC
0001FC
0001FC
0001FC
0001FC
0001FC
0001FC
0001FC
0001FC
0001FC
0001FC
0001FC
0001FC
0001FC
0001FC
0001FC
0001FC
0001FC
0001FC
0001FC
0001FC
0001FC
ENDCHAR
STARTCHAR 00B7
ENCODING 183
SWIDTH 300 0
DWIDTH 15 0
BBX 8 7 3 18
BITMAP
7E
FF
FF
FF
FF
FF
7E
ENDCHAR
STARTCHAR 00B8
ENCODING 184
SWIDTH 300 0
DWIDTH 15 0
BBX 11 11 0 -11
BITMAP
0600
0600
0E00
0F80
1FE0
03E0
01E0
01E0
03C0
FF80
7F00
ENDCHAR
STARTCHAR 00BB
ENCODING 187
SWIDTH 400 0
DWIDTH 20 0
BBX 16 19 2 4
BITMAP
E1E0
F0F0
F0F0
7878
7878
3C3C
3C3C
1E1E
1E1E
0F0F
0F0F
1E1E
1E3E
3C3C
3C78
7878
78F0
F0F0
E1E0
ENDCHAR
STARTCHAR 00BF
ENCODING 191
SWIDTH 600 0
DWIDTH 30 0
BBX 19 39 3 0
BITMAP
0007C0
000FE0
000FE0
000FE0
000FE0
000FE0
000FC0
000000
000000
000000
000FE0
000FE0
000FE0
000FE0
000FE0
000FE0
001FE0
003FE0
07FFC0
1FFFC0
3FFFC0
7FFF80
7FFE00
FF8000
FF0000
FE0000
FE0000
FE0000
FE0000
FE0000
FE0000
FE0000
FF0000
FFFFE0
7FFFE0
7FFFE0
3FFFE0
1FFFE0
07FFE0
ENDCHAR
STARTCHAR 00C0
ENCODING 192
SWIDTH 620 0
DWIDTH 31 0
BBX 23 49 4 0
BITMAP
0FE000
07E000
07F000
03F000
01F800
01F800
00F800
007C00
000000
000000
03FF80
1FFFF0
3FFFF8
7FFFFC
7FFFFC
7FEFFC
FF01FE
FF01FE
FE00FE
FE00FE
FE00FE
FE00FE
FE00FE
FE00FE
FE00FE
FE00FE
FE00FE
FE00FE
FFFFFE
FFFFFE
FFFFFE
FFFFFE
FFFFFE
FE00FE
FE00FE
FE00FE
FE00FE
FE00FE
FE00FE
FE00FE
FE00FE
FE00FE
FE00FE
FE00FE
FE00FE
FE00FE
FE00FE
FE00FE
FE00FE
ENDCHAR
STARTCHAR 00C1
ENCODING 193
SWIDTH 620 0
DWIDTH 31 0
BBX 23 49 4 0
BITMAP
0007E0
000FE0
000FC0
001F80
001F80
001F00
003E00
003E00
000000
000000
03FF80
1FFFF0
3FFFF8
7FFFFC
7FFFFC
7FEFFC
FF01FE
FF01FE
FE00FE
FE00FE
FE00FE
FE00FE
FE00FE
FE00FE
FE00FE
FE00FE
FE00FE
FE00FE
FFFFFE
FFFFFE
FFFFFE
FFFFFE
FFFFFE
FE00FE
FE00FE
FE00FE
FE00FE
FE00FE
FE00FE
FE00FE
FE00FE
FE00FE
FE00FE
FE00FE
FE00FE
FE00FE
FE00FE
FE00FE
FE00FE
ENDCHAR
STARTCHAR 00C2
ENCODING 194
SWIDTH 620 0
DWIDTH 31 0
BBX 23 49 4 1
BITMAP
00FC00
00FE00
01FE00
03FF00
03FF80
07CF80
0F87C0
0F03E0
000000
000000
03FF80
1FFFF0
3FFFF8
7FFFFC
7FFFFC
7FEFFC
FF01FE
FF01FE
FE00FE
FE00FE
FE00FE
FE00FE
FE00FE
FE00FE
FE00FE
FE00FE
FE00FE
FE00FE
FFFFFE
FFFFFE
FFFFFE
FFFFFE
FFFFFE
FE00FE
FE00FE
FE00FE
FE00FE
FE00FE
FE00FE
FE00FE
FE00FE
FE00FE
FE00FE
FE00FE
FE00FE
FE00FE
FE00FE
FE00FE
FE00FE
ENDCHAR
STARTCHAR 00C3
ENCODING 195
SWIDTH 620 0
DWIDTH 31 0
BBX 23 48 4 0
BITMAP
03E030
07FCF0
0FFFE0
1FFFC0
1FFF80
000F00
000000
000000
000000
03FF80
1FFFF0
3FFFF8
7FFFFC
7FFFFC
7FEFFC
FF01FE
FF01FE
FE00FE
FE00FE
FE00FE
FE00FE
FE00FE
FE00FE
FE00FE
FE00FE
FE00FE
FE00FE
FFFFFE
FFFFFE
FFFFFE
FFFFFE
FFFFFE
FE00FE
FE00FE
FE00FE
FE00FE
FE00FE
FE00FE
FE00FE
FE00FE
FE00FE
FE00FE
FE00FE
FE00FE
FE00FE
FE00FE
FE00FE
FE00FE
ENDCHAR
STARTCHAR 00C4
ENCODING 196
SWIDTH 620 0
DWIDTH 31 0
BBX 23 48 4 0
BITMAP
0F87C0
1FCFE0
1FCFE0
1FCFE0
1FCFE0
0F87C0
000000
000000
000000
03FF80
1FFFF0
3FFFF8
7FFFFC
7FFFFC
7FEFFC
FF01FE
FF01FE
FE00FE
FE00FE
FE00FE
FE00FE
FE00FE
FE00FE
FE00FE
FE00FE
FE00FE
FE00FE
FFFFFE
FFFFFE
FFFFFE
FFFFFE
FFFFFE
FE00FE
FE00FE
FE00FE
FE00FE
FE00FE
FE00FE
FE00FE
FE00FE
FE00FE
FE00FE
FE00FE
FE00FE
FE00FE
FE00FE
FE00FE
FE00FE
ENDCHAR
STARTCHAR 00C5
ENCODING 197
SWIDTH 620 0
DWIDTH 31 0
BBX 23 51 4 0
BITMAP
003800
007E00
00FE00
01E700
01C700
01C700
01E700
00FE00
007E00
003800
000000
000000
03FF80
1FFFF0
3FFFF8
7FFFFC
7FFFFC
7FEFFC
FF01FE
FF01FE
FE00FE
FE00FE
FE00FE
FE00FE
FE00FE
FE00FE
FE00FE
FE00FE
FE00FE
FE00FE
FFFFFE
FFFFFE
FFFFFE
FFFFFE
FFFFFE
FE00FE
FE00FE
FE00FE
FE00FE
FE00FE
FE00FE
FE00FE
FE00FE
FE00FE
FE00FE
FE00FE
FE00FE
FE00FE
FE00FE
FE00FE
FE00FE
ENDCHAR
STARTCHAR 00C6
ENCODING 198
SWIDTH 860 0
DWIDTH 43 0
BBX 37 39 4 0
BITMAP
03FFFFFFF8
1FFFFFFFF8
3FFFFFFFF8
7FFFFFFFF8
7FFFFFFFF8
7FFFFFFFF8
FF01FF8000
FF01FF0000
FE00FE0000
FE00FE0000
FE00FE0000
FE00FE0000
FE00FE0000
FE00FE0000
FE00FE0000
FE00FE0000
FFFFFFFF80
FFFFFFFF80
FFFFFFFF80
FFFFFFFF80
FFFFFFFF80
FE00FE0000
FE00FE0000
FE00FE0000
FE00FE0000
FE00FE0000
FE00FE0000
FE00FE0000
FE00FE0000
FE00FE0000
FE00FE0000
FE00FF0000
FE00FF0000
FE007FFFF8
FE007FFFF8
FE007FFFF8
FE003FFFF8
FE003FFFF8
FE000FFFF8
ENDCHAR
STARTCHAR 00C7
ENCODING 199
SWIDTH 520 0
DWIDTH 26 0
BBX 20 49 3 -11
BITMAP
0FFFF0
1FFFF0
3FFFF0
7FFFF0
7FFFF0
7FFFF0
7F0000
FF0000
FE0000
FE0000
FE0000
FE0000
FE0000
FE0000
FE0000
FE0000
FE0000
FE0000
FE0000
FE0000
FE0000
FE0000
FE0000
FE0000
FE0000
FE0000
FE0000
FE0000
FE0000
FE0000
FE0000
FF0000
FF8000
7FFFF0
7FFFF0
7FFFF0
3FFFF0
3FFFF0
07FFF0
001800
003000
003F00
003F80
000F80
000780
000780
000F00
01FF00
01FC00
ENDCHAR
STARTCHAR 00C8
ENCODING 200
SWIDTH 520 0
DWIDTH 26 0
BBX 21 49 3 0
BITMAP
0FE000
07E000
07F000
03F000
01F800
01F800
00F800
007C00
000000
000000
0FFFF8
1FFFF8
3FFFF8
7FFFF8
7FFFF8
7FFFF8
7F0000
FF0000
FE0000
FE0000
FE0000
FE0000
FE0000
FE0000
FE0000
FE0000
FFFF80
FFFF80
FFFF80
FFFF80
FFFF80
FE0000
FE0000
FE0000
FE0000
FE0000
FE0000
FE0000
FE0000
FE0000
FE0000
FF0000
FF0000
7FFFF8
7FFFF8
7FFFF8
3FFFF8
3FFFF8
0FFFF8
ENDCHAR
STARTCHAR 00C9
ENCODING 201
SWIDTH 520 0
DWIDTH 26 0
BBX 21 49 3 0
BITMAP
000FE0
000FC0
001F80
001F80
003F00
003E00
007E00
007C00
000000
000000
0FFFF8
1FFFF8
3FFFF8
7FFFF8
7FFFF8
7FFFF8
7F0000
FF0000
FE0000
FE0000
FE0000
FE0000
FE0000
FE0000
FE0000
FE0000
FFFF80
FFFF80
FFFF80
FFFF80
FFFF80
FE0000
FE0000
FE0000
FE0000
FE0000
FE0000
FE0000
FE0000
FE0000
FE0000
FF0000
FF0000
7FFFF8
7FFFF8
7FFFF8
3FFFF8
3FFFF8
0FFFF8
ENDCHAR
STARTCHAR 00CA
ENCODING 202
SWIDTH 520 0
DWIDTH 26 0
BBX 21 49 3 1
BITMAP
007E00
00FF00
00FF00
01FF80
03FFC0
07E7C0
0783E0
0F01F0
000000
000000
0FFFF8
1FFFF8
3FFFF8
7FFFF8
7FFFF8
7FFFF8
7F0000
FF0000
FE0000
FE0000
FE0000
FE0000
FE0000
FE0000
FE0000
FE0000
FFFF80
FFFF80
FFFF80
FFFF80
FFFF80
FE0000
FE0000
FE0000
FE0000
FE0000
FE0000
FE0000
FE0000
FE0000
FE0000
FF0000
FF0000
7FFFF8
7FFFF8
7FFFF8
3FFFF8
3FFFF8
0FFFF8
ENDCHAR
STARTCHAR 00CB
ENCODING 203
SWIDTH 520 0
DWIDTH 26 0
BBX 20 47 3 0
BITMAP
07C3E0
0FE7F0
0FE7F0
0FE7F0
0FE7F0
07C3E0
000000
000000
0FFFF0
1FFFF0
3FFFF0
7FFFF0
7FFFF0
7FFFF0
7F0000
FF0000
FE0000
FE0000
FE0000
FE0000
FE0000
FE0000
FE0000
FE0000
FFFF80
FFFF80
FFFF80
FFFF80
FFFF80
FE0000
FE0000
FE0000
FE0000
FE0000
FE0000
FE0000
FE0000
FE0000
FE0000
FF0000
FF0000
7FFFF0
7FFFF0
7FFFF0
3FFFF0
3FFFF0
0FFFF0
ENDCHAR
STARTCHAR 00CC
ENCODING 204
SWIDTH 280 0
DWIDTH 14 0
BBX 10 49 4 0
BITMAP
FE00
7E00
3E00
3F00
1F00
1F80
0F80
07C0
0000
0000
FE00
FE00
FE00
FE00
FE00
FE00
FE00
FE00
FE00
FE00
FE00
FE00
FE00
FE00
FE00
FE00
FE00
FE00
FE00
FE00
FE00
FE00
FE00
FE00
FE00
FE00
FE00
FE00
FE00
FE00
FE00
FE00
FE00
FE00
FE00
FE00
FE00
FE00
FE00
ENDCHAR
STARTCHAR 00CD
ENCODING 205
SWIDTH 280 0
DWIDTH 14 0
BBX 11 49 4 0
BITMAP
0FE0
0FC0
1F80
1F80
1F00
3E00
3E00
7C00
0000
0000
FE00
FE00
FE00
FE00
FE00
FE00
FE00
FE00
FE00
FE00
FE00
FE00
FE00
FE00
FE00
FE00
FE00
FE00
FE00
FE00
FE00
FE00
FE00
FE00
FE00
FE00
FE00
FE00
FE00
FE00
FE00
FE00
FE00
FE00
FE00
FE00
FE00
FE00
FE00
ENDCHAR
STARTCHAR 00CE
ENCODING 206
SWIDTH 280 0
DWIDTH 14 0
BBX 16 49 4 1
BITMAP
07E0
0FE0
0FF0
1FF8
3EF8
3C7C
783E
F01F
0000
0000
FE00
FE00
FE00
FE00
FE00
FE00
FE00
FE00
FE00
FE00
FE00
FE00
FE00
FE00
FE00
FE00
FE00
FE00
FE00
FE00
FE00
FE00
FE00
FE00
FE00
FE00
FE00
FE00
FE00
FE00
FE00
FE00
FE00
FE00
FE00
FE00
FE00
FE00
FE00
ENDCHAR
STARTCHAR 00CF
ENCODING 207
SWIDTH 280 0
DWIDTH 14 0
BBX 16 47 3 0
BITMAP
7C3E
FE7F
FE7F
FE7F
FE7F
7C3E
0000
0000
FE00
FE00
FE00
FE00
FE00
FE00
FE00
FE00
FE00
FE00
FE00
FE00
FE00
FE00
FE00
FE00
FE00
FE00
FE00
FE00
FE00
FE00
FE00
FE00
FE00
FE00
FE00
FE00
FE00
FE00
FE00
FE00
FE00
FE00
FE00
FE00
FE00
FE00
FE00
ENDCHAR
STARTCHAR 00D1
ENCODING 209
SWIDTH 600 0
DWIDTH 30 0
BBX 23 48 4 0
BITMAP
03E070
07FCE0
0FFFE0
1FFFC0
1FFF80
000E00
000000
000000
000000
03FF80
1FFFF0
3FFFF8
7FFFFC
7FFFFC
7FEFFC
FF01FE
FF01FE
FE00FE
FE00FE
FE00FE
FE00FE
FE00FE
FE00FE
FE00FE
FE00FE
FE00FE
FE00FE
FE00FE
FE00FE
FE00FE
FE00FE
FE00FE
FE00FE
FE00FE
FE00FE
FE00FE
FE00FE
FE00FE
FE00FE
FE00FE
FE00FE
FE00FE
FE00FE
FE00FE
FE00FE
FE00FE
FE00FE
FE00FE
ENDCHAR
STARTCHAR 00D2
ENCODING 210
SWIDTH 600 0
DWIDTH 30 0
BBX 24 49 3 0
BITMAP
07E000
07F000
03F000
01F000
01F800
00F800
007C00
007C00
000000
000000
03FFC0
0FFFF0
3FFFFC
3FFFFC
7FFFFE
7FEFFE
FF00FF
FF00FF
FE007F
FE007F
FE007F
FE007F
FE007F
FE007F
FE007F
FE007F
FE007F
FE007F
FE007F
FE007F
FE007F
FE007F
FE007F
FE007F
FE007F
FE007F
FE007F
FE007F
FE007F
FE007F
FF007F
FF00FF
7F80FE
7FE7FE
7FFFFE
7FFFFC
3FFFFC
1FFFF8
03FFC0
ENDCHAR
STARTCHAR 00D3
ENCODING 211
SWIDTH 600 0
DWIDTH 30 0
BBX 24 49 3 0
BITMAP
000FE0
000FC0
001F80
001F80
003F00
003E00
003E00
007C00
000000
000000
03FFC0
0FFFF0
3FFFFC
3FFFFC
7FFFFE
7FEFFE
FF00FF
FF00FF
FE007F
FE007F
FE007F
FE007F
FE007F
FE007F
FE007F
FE007F
FE007F
FE007F
FE007F
FE007F
FE007F
FE007F
FE007F
FE007F
FE007F
FE007F
FE007F
FE007F
FE007F
FE007F
FF007F
FF00FF
7F80FE
7FE7FE
7FFFFE
7FFFFC
3FFFFC
1FFFF8
03FFC0
ENDCHAR
STARTCHAR 00D4
ENCODING 212
SWIDTH 600 0
DWIDTH 30 0
BBX 24 49 3 1
BITMAP
007E00
00FE00
00FF00
01FF80
03FF80
03E7C0
07C3E0
0781E0
000000
000000
03FFC0
0FFFF0
3FFFFC
3FFFFC
7FFFFE
7FEFFE
FF00FF
FF00FF
FE007F
FE007F
FE007F
FE007F
FE007F
FE007F
FE007F
FE007F
FE007F
FE007F
FE007F
FE007F
FE007F
FE007F
FE007F
FE007F
FE007F
FE007F
FE007F
FE007F
FE007F
FE007F
FF007F
FF00FF
7F80FE
7FE7FE
7FFFFE
7FFFFC
3FFFFC
1FFFF8
03FFC0
ENDCHAR
STARTCHAR 00D5
ENCODING 213
SWIDTH 600 0
DWIDTH 30 0
BBX 24 48 3 0
BITMAP
03E070
07FCF0
0FFFE0
1FFFC0
1FFF80
000F00
000000
000000
000000
03FFC0
0FFFF0
3FFFFC
3FFFFC
7FFFFE
7FEFFE
FF00FF
FF00FF
FE007F
FE007F
FE007F
FE007F
FE007F
FE007F
FE007F
FE007F
FE007F
FE007F
FE007F
FE007F
FE007F
FE007F
FE007F
FE007F
FE007F
FE007F
FE007F
FE007F
FE007F
FE007F
FF007F
FF00FF
7F80FE
7FE7FE
7FFFFE
7FFFFC
3FFFFC
1FFFF8
03FFC0
ENDCHAR
STARTCHAR 00D6
ENCODING 214
SWIDTH 600 0
DWIDTH 30 0
BBX 24 48 3 0
BITMAP
07C3E0
0FE7F0
0FE7F0
0FE7F0
0FE7F0
07C3E0
000000
000000
000000
03FFC0
0FFFF0
3FFFFC
3FFFFC
7FFFFE
7FEFFE
FF00FF
FF00FF
FE007F
FE007F
FE007F
FE007F
FE007F
FE007F
FE007F
FE007F
FE007F
FE007F
FE007F
FE007F
FE007F
FE007F
FE007F
FE007F
FE007F
FE007F
FE007F
FE007F
FE007F
FE007F
FF007F
FF00FF
7F80FE
7FE7FE
7FFFFE
7FFFFC
3FFFFC
1FFFF8
03FFC0
ENDCHAR
STARTCHAR 00D8
ENCODING 216
SWIDTH 600 0
DWIDTH 30 0
BBX 24 51 3 -6
BITMAP
00003C
00003C
000038
000078
000078
000078
03FFF0
1FFFF8
3FFFFC
3FFFFE
7FFFFE
7FEFFE
FF03FF
FF03FF
FE03FF
FE07FF
FE07FF
FE07FF
FE0F7F
FE0F7F
FE0F7F
FE1E7F
FE1E7F
FE1E7F
FE3C7F
FE3C7F
FE3C7F
FE787F
FE787F
FE787F
FEF07F
FEF07F
FEF07F
FFE07F
FFE07F
FFE07F
FFC07F
FFC0FF
7FC0FE
7FE7FE
7FFFFE
7FFFFC
3FFFFC
1FFFF8
0FFFC0
1E0000
1E0000
1E0000
3C0000
3C0000
3C0000
ENDCHAR
STARTCHAR 00D9
ENCODING 217
SWIDTH 620 0
DWIDTH 31 0
BBX 23 49 4 0
BITMAP
07E000
07E000
03F000
01F000
01F800
00F800
00FC00
007C00
000000
000000
FE00FE
FE00FE
FE00FE
FE00FE
FE00FE
FE00FE
FE00FE
FE00FE
FE00FE
FE00FE
FE00FE
FE00FE
FE00FE
FE00FE
FE00FE
FE00FE
FE00FE
FE00FE
FE00FE
FE00FE
FE00FE
FE00FE
FE00FE
FE00FE
FE00FE
FE00FE
FE00FE
FE00FE
FE00FE
FE00FE
FE00FE
FE00FE
FF01FE
FF83FE
7FFFFC
7FFFFC
3FFFF8
3FFFF0
07FFC0
ENDCHAR
STARTCHAR 00DA
ENCODING 218
SWIDTH 620 0
DWIDTH 31 0
BBX 23 49 4 0
BITMAP
000FE0
000FC0
000FC0
001F80
001F00
003F00
003E00
007C00
000000
000000
FE00FE
FE00FE
FE00FE
FE00FE
FE00FE
FE00FE
FE00FE
FE00FE
FE00FE
FE00FE
FE00FE
FE00FE
FE00FE
FE00FE
FE00FE
FE00FE
FE00FE
FE00FE
FE00FE
FE00FE
FE00FE
FE00FE
FE00FE
FE00FE
FE00FE
FE00FE
FE00FE
FE00FE
FE00FE
FE00FE
FE00FE
FE00FE
FF01FE
FF83FE
7FFFFC
7FFFFC
3FFFF8
3FFFF0
07FFC0
ENDCHAR
STARTCHAR 00DB
ENCODING 219
SWIDTH 620 0
DWIDTH 31 0
BBX 23 49 4 1
BITMAP
007C00
00FE00
01FF00
01FF00
03EF80
07C7C0
0783C0
0F01E0
000000
000000
FE00FE
FE00FE
FE00FE
FE00FE
FE00FE
FE00FE
FE00FE
FE00FE
FE00FE
FE00FE
FE00FE
FE00FE
FE00FE
FE00FE
FE00FE
FE00FE
FE00FE
FE00FE
FE00FE
FE00FE
FE00FE
FE00FE
FE00FE
FE00FE
FE00FE
FE00FE
FE00FE
FE00FE
FE00FE
FE00FE
FE00FE
FE00FE
FF01FE
FF83FE
7FFFFC
7FFFFC
3FFFF8
3FFFF0
07FFC0
ENDCHAR
STARTCHAR 00DC
ENCODING 220
SWIDTH 620 0
DWIDTH 31 0
BBX 23 48 4 0
BITMAP
0F87C0
1FCFE0
1FCFE0
1FCFE0
1FCFE0
0F87C0
000000
000000
000000
FE00FE
FE00FE
FE00FE
FE00FE
FE00FE
FE00FE
FE00FE
FE00FE
FE00FE
FE00FE
FE00FE
FE00FE
FE00FE
FE00FE
FE00FE
FE00FE
FE00FE
FE00FE
FE00FE
FE00FE
FE00FE
FE00FE
FE00FE
FE00FE
FE00FE
FE00FE
FE00FE
FE00FE
FE00FE
FE00FE
FE00FE
FE00FE
FF01FE
FF83FE
7FFFFC
7FFFFC
3FFFF8
3FFFF0
07FFC0
ENDCHAR
STARTCHAR 00DD
ENCODING 221
SWIDTH 560 0
DWIDTH 28 0
BBX 0 0 0 0
BITMAP
ENDCHAR
STARTCHAR 00DF
ENCODING 223
SWIDTH 560 0
DWIDTH 28 0
BBX 22 44 4 -6
BITMAP
03FF00
1FFFE0
3FFFF0
7FFFF8
7FFFFC
7FEFFC
FF03FC
FE01FC
FE01FC
FE01FC
FE01FC
FE01FC
FE01FC
FE03FC
FE07FC
FE3FF8
FE3FF0
FE3FC0
FE3FF0
FE3FF8
FE0FF8
FE03FC
FE03FC
FE01FC
FE01FC
FE01FC
FE01FC
FE01FC
FE01FC
FE01FC
FE01FC
FE01FC
FE03FC
FE07FC
FE3FFC
FE3FF8
FE3FF0
FE3FE0
FE3F00
FE0000
FE0000
FE0000
FE0000
FE0000
ENDCHAR
STARTCHAR 00E0
ENCODING 224
SWIDTH 620 0
DWIDTH 31 0
BBX 23 39 4 0
BITMAP
0FE000
07E000
07F000
03F000
01F000
01F800
00F800
007C00
000000
000000
07FFC0
1FFFF0
7FFFF8
7FFFFC
FF03FC
FE01FE
FE00FE
FE00FE
FE00FE
FE00FE
FE00FE
FE00FE
FE00FE
FFFFFE
FFFFFE
FFFFFE
FFFFFE
FE00FE
FE00FE
FE00FE
FE00FE
FE00FE
FE00FE
FE00FE
FE00FE
FE00FE
FE00FE
FE00FE
FE00FE
ENDCHAR
STARTCHAR 00E1
ENCODING 225
SWIDTH 620 0
DWIDTH 31 0
BBX 23 39 4 0
BITMAP
000FC0
001FC0
001F80
003F00
003F00
003E00
007E00
007C00
000000
000000
07FFC0
1FFFF0
7FFFF8
7FFFFC
FF03FC
FE01FE
FE00FE
FE00FE
FE00FE
FE00FE
FE00FE
FE00FE
FE00FE
FFFFFE
FFFFFE
FFFFFE
FFFFFE
FE00FE
FE00FE
FE00FE
FE00FE
FE00FE
FE00FE
FE00FE
FE00FE
FE00FE
FE00FE
FE00FE
FE00FE
ENDCHAR
STARTCHAR 00E2
ENCODING 226
SWIDTH 620 0
DWIDTH 31 0
BBX 23 39 4 0
BITMAP
00FC00
01FE00
01FE00
03FF00
07FF00
07CF80
0F87C0
1F03C0
000000
000000
07FFC0
1FFFF0
7FFFF8
7FFFFC
FF03FC
FE01FE
FE00FE
FE00FE
FE00FE
FE00FE
FE00FE
FE00FE
FE00FE
FFFFFE
FFFFFE
FFFFFE
FFFFFE
FE00FE
FE00FE
FE00FE
FE00FE
FE00FE
FE00FE
FE00FE
FE00FE
FE00FE
FE00FE
FE00FE
FE00FE
ENDCHAR
STARTCHAR 00E3
ENCODING 227
SWIDTH 620 0
DWIDTH 31 0
BBX 23 38 4 0
BITMAP
03E070
0FF8E0
1FFFE0
1FFFC0
3FFF80
000400
000000
000000
000000
07FFC0
1FFFF0
7FFFF8
7FFFFC
FF03FC
FE01FE
FE00FE
FE00FE
FE00FE
FE00FE
FE00FE
FE00FE
FE00FE
FFFFFE
FFFFFE
FFFFFE
FFFFFE
FE00FE
FE00FE
FE00FE
FE00FE
FE00FE
FE00FE
FE00FE
FE00FE
FE00FE
FE00FE
FE00FE
FE00FE
ENDCHAR
STARTCHAR 00E4
ENCODING 228
SWIDTH 620 0
DWIDTH 31 0
BBX 23 38 4 0
BITMAP
0F87C0
1FCFE0
1FCFE0
1FCFE0
1FCFE0
0F87C0
000000
000000
000000
07FFC0
1FFFF0
7FFFF8
7FFFFC
FF03FC
FE01FE
FE00FE
FE00FE
FE00FE
FE00FE
FE00FE
FE00FE
FE00FE
FFFFFE
FFFFFE
FFFFFE
FFFFFE
FE00FE
FE00FE
FE00FE
FE00FE
FE00FE
FE00FE
FE00FE
FE00FE
FE00FE
FE00FE
FE00FE
FE00FE
ENDCHAR
STARTCHAR 00E5
ENCODING 229
SWIDTH 620 0
DWIDTH 31 0
BBX 23 41 4 0
BITMAP
003800
00FE00
00FE00
01C700
01C700
01C700
01C700
00FE00
00FE00
003800
000000
000000
07FFC0
1FFFF0
7FFFF8
7FFFFC
FF03FC
FE01FE
FE00FE
FE00FE
FE00FE
FE00FE
FE00FE
FE00FE
FE00FE
FFFFFE
FFFFFE
FFFFFE
FFFFFE
FE00FE
FE00FE
FE00FE
FE00FE
FE00FE
FE00FE
FE00FE
FE00FE
FE00FE
FE00FE
FE00FE
FE00FE
ENDCHAR
STARTCHAR 00E6
ENCODING 230
SWIDTH 860 0
DWIDTH 43 0
BBX 37 29 4 0
BITMAP
07FFFFFFF8
1FFFFFFFF8
7FFFFFFFF8
7FFFFFFFF8
7F83FF8000
FF01FF0000
FE00FE0000
FE00FE0000
FE00FE0000
FE00FE0000
FE00FE0000
FE00FE0000
FFFFFFFF80
FFFFFFFF80
FFFFFFFF80
FFFFFFFF80
FE00FE0000
FE00FE0000
FE00FE0000
FE00FE0000
FE00FE0000
FE00FE0000
FE00FE0000
FE00FF0000
FE007F8000
FE007FFFF8
FE007FFFF8
FE003FFFF8
FE001FFFF8
ENDCHAR
STARTCHAR 00E7
ENCODING 231
SWIDTH 520 0
DWIDTH 26 0
BBX 20 40 3 -11
BITMAP
0FFFF0
3FFFF0
7FFFF0
7FFFF0
7F8000
FF0000
FE0000
FE0000
FE0000
FE0000
FE0000
FE0000
FE0000
FE0000
FE0000
FE0000
FE0000
FE0000
FE0000
FE0000
FE0000
FE0000
FE0000
FF0000
7F8000
7FFFF0
7FFFF0
3FFFF0
1FFFF0
001800
001800
003800
003E00
003F80
007F80
000780
000780
000F00
01FF00
00FC00
ENDCHAR
STARTCHAR 00E8
ENCODING 232
SWIDTH 520 0
DWIDTH 26 0
BBX 21 39 3 0
BITMAP
0FE000
07E000
07F000
03F000
01F000
01F800
00F800
007C00
000000
000000
0FFFF8
3FFFF8
7FFFF8
7FFFF8
7F8000
FF0000
FE0000
FE0000
FE0000
FE0000
FE0000
FE0000
FFFF80
FFFF80
FFFF80
FFFF80
FE0000
FE0000
FE0000
FE0000
FE0000
FE0000
FE0000
FF0000
7F8000
7FFFF8
7FFFF8
3FFFF8
1FFFF8
ENDCHAR
STARTCHAR 00E9
ENCODING 233
SWIDTH 520 0
DWIDTH 26 0
BBX 21 39 3 0
BITMAP
001FC0
001F80
003F80
003F00
003E00
007E00
007C00
00F800
000000
000000
0FFFF8
3FFFF8
7FFFF8
7FFFF8
7F8000
FF0000
FE0000
FE0000
FE0000
FE0000
FE0000
FE0000
FFFF80
FFFF80
FFFF80
FFFF80
FE0000
FE0000
FE0000
FE0000
FE0000
FE0000
FE0000
FF0000
7F8000
7FFFF8
7FFFF8
3FFFF8
1FFFF8
ENDCHAR
STARTCHAR 00EA
ENCODING 234
SWIDTH 520 0
DWIDTH 26 0
BBX 21 39 3 0
BITMAP
007E00
00FE00
01FF00
01FF80
03FFC0
07C7C0
0783E0
0F01F0
000000
000000
0FFFF8
3FFFF8
7FFFF8
7FFFF8
7F8000
FF0000
FE0000
FE0000
FE0000
FE0000
FE0000
FE0000
FFFF80
FFFF80
FFFF80
FFFF80
FE0000
FE0000
FE0000
FE0000
FE0000
FE0000
FE0000
FF0000
7F8000
7FFFF8
7FFFF8
3FFFF8
1FFFF8
ENDCHAR
STARTCHAR 00EB
ENCODING 235
SWIDTH 520 0
DWIDTH 26 0
BBX 20 38 3 0
BITMAP
07C3E0
0FE7F0
0FE7F0
0FE7F0
0FE7F0
07C3E0
000000
000000
000000
0FFFF0
3FFFF0
7FFFF0
7FFFF0
7F8000
FF0000
FE0000
FE0000
FE0000
FE0000
FE0000
FE0000
FFFF80
FFFF80
FFFF80
FFFF80
FE0000
FE0000
FE0000
FE0000
FE0000
FE0000
FE0000
FF0000
7F8000
7FFFF0
7FFFF0
3FFFF0
1FFFF0
ENDCHAR
STARTCHAR 00EC
ENCODING 236
SWIDTH 280 0
DWIDTH 14 0
BBX 10 39 3 0
BITMAP
FE00
7E00
3F00
3F00
1F80
1F80
0FC0
07C0
0000
0000
FE00
FE00
FE00
FE00
FE00
FE00
FE00
FE00
FE00
FE00
FE00
FE00
FE00
FE00
FE00
FE00
FE00
FE00
FE00
FE00
FE00
FE00
FE00
FE00
FE00
FE00
FE00
FE00
FE00
ENDCHAR
STARTCHAR 00ED
ENCODING 237
SWIDTH 280 0
DWIDTH 14 0
BBX 11 39 3 0
BITMAP
0FE0
0FC0
1F80
1F80
3F00
3F00
3E00
7C00
0000
0000
FE00
FE00
FE00
FE00
FE00
FE00
FE00
FE00
FE00
FE00
FE00
FE00
FE00
FE00
FE00
FE00
FE00
FE00
FE00
FE00
FE00
FE00
FE00
FE00
FE00
FE00
FE00
FE00
FE00
ENDCHAR
STARTCHAR 00EE
ENCODING 238
SWIDTH 280 0
DWIDTH 14 0
BBX 16 39 3 0
BITMAP
07E0
0FF0
0FF0
1FF8
3FFC
3E7C
7C3E
F80F
0000
0000
FE00
FE00
FE00
FE00
FE00
FE00
FE00
FE00
FE00
FE00
FE00
FE00
FE00
FE00
FE00
FE00
FE00
FE00
FE00
FE00
FE00
FE00
FE00
FE00
FE00
FE00
FE00
FE00
FE00
ENDCHAR
STARTCHAR 00EF
ENCODING 239
SWIDTH 280 0
DWIDTH 14 0
BBX 16 38 3 0
BITMAP
7C3E
FE7F
FE7F
FE7F
FE7F
7C3E
0000
0000
0000
FE00
FE00
FE00
FE00
FE00
FE00
FE00
FE00
FE00
FE00
FE00
FE00
FE00
FE00
FE00
FE00
FE00
FE00
FE00
FE00
FE00
FE00
FE00
FE00
FE00
FE00
FE00
FE00
FE00
ENDCHAR
STARTCHAR 00F1
ENCODING 241
SWIDTH 600 0
DWIDTH 30 0
BBX 23 38 4 0
BITMAP
03E030
07FCF0
0FFFE0
1FFFC0
1FFF80
000600
000000
000000
000000
07FFC0
1FFFF0
7FFFF8
7FFFFC
FF03FC
FF01FE
FE00FE
FE00FE
FE00FE
FE00FE
FE00FE
FE00FE
FE00FE
FE00FE
FE00FE
FE00FE
FE00FE
FE00FE
FE00FE
FE00FE
FE00FE
FE00FE
FE00FE
FE00FE
FE00FE
FE00FE
FE00FE
FE00FE
FE00FE
ENDCHAR
STARTCHAR 00F2
ENCODING 242
SWIDTH 600 0
DWIDTH 30 0
BBX 24 39 3 0
BITMAP
0FE000
07E000
03F000
03F000
01F800
00F800
00F800
007C00
000000
000000
03FFE0
1FFFF8
3FFFFC
7FFFFE
7F81FE
FF00FF
FE007F
FE007F
FE007F
FE007F
FE007F
FE007F
FE007F
FE007F
FE007F
FE007F
FE007F
FE007F
FE007F
FE007F
FE007F
FE007F
FE007F
FF00FF
7F81FE
7FFFFE
3FFFFC
1FFFF8
07FFE0
ENDCHAR
STARTCHAR 00F3
ENCODING 243
SWIDTH 600 0
DWIDTH 30 0
BBX 24 39 3 0
BITMAP
000FE0
000FC0
001F80
001F80
003F00
003E00
003E00
007C00
000000
000000
03FFE0
1FFFF8
3FFFFC
7FFFFE
7F81FE
FF00FF
FE007F
FE007F
FE007F
FE007F
FE007F
FE007F
FE007F
FE007F
FE007F
FE007F
FE007F
FE007F
FE007F
FE007F
FE007F
FE007F
FE007F
FF00FF
7F81FE
7FFFFE
3FFFFC
1FFFF8
07FFE0
ENDCHAR
STARTCHAR 00F4
ENCODING 244
SWIDTH 600 0
DWIDTH 30 0
BBX 24 39 3 0
BITMAP
007C00
00FE00
01FF00
01FF00
03EF80
07C7C0
0783C0
0F01E0
000000
000000
03FFE0
1FFFF8
3FFFFC
7FFFFE
7F81FE
FF00FF
FE007F
FE007F
FE007F
FE007F
FE007F
FE007F
FE007F
FE007F
FE007F
FE007F
FE007F
FE007F
FE007F
FE007F
FE007F
FE007F
FE007F
FF00FF
7F81FE
7FFFFE
3FFFFC
1FFFF8
07FFE0
ENDCHAR
STARTCHAR 00F5
ENCODING 245
SWIDTH 600 0
DWIDTH 30 0
BBX 24 38 3 0
BITMAP
01E030
07FC70
0FFFE0
0FFFE0
1FFFC0
000600
000000
000000
000000
03FFE0
1FFFF8
3FFFFC
7FFFFE
7F81FE
FF00FF
FE007F
FE007F
FE007F
FE007F
FE007F
FE007F
FE007F
FE007F
FE007F
FE007F
FE007F
FE007F
FE007F
FE007F
FE007F
FE007F
FE007F
FF00FF
7F81FE
7FFFFE
3FFFFC
1FFFF8
07FFE0
ENDCHAR
STARTCHAR 00F6
ENCODING 246
SWIDTH 600 0
DWIDTH 30 0
BBX 25 38 3 0
BITMAP
07C3E000
0FE7F000
0FE7F000
0FE7F000
0FE7F000
07C3E000
00000000
00000000
00000000
03FFE000
1FFFFC00
3FFFFE00
7FFFFF00
7F80FF00
FF007F80
FE003F80
FE003F80
FE003F80
FE003F80
FE003F80
FE003F80
FE003F80
FE003F80
FE003F80
FE003F80
FE003F80
FE003F80
FE003F80
FE003F80
FE003F80
FE003F80
FF003F80
FF007F80
7F80FF00
7FFFFF00
3FFFFE00
1FFFFC00
07FFF000
ENDCHAR
STARTCHAR 00F7
ENCODING 247
SWIDTH 600 0
DWIDTH 30 0
BBX 26 28 2 0
BITMAP
003F0000
007F8000
007F8000
007F8000
007F8000
007F8000
003F0000
00000000
00000000
00000000
00000000
7FFFFF80
FFFFFFC0
FFFFFFC0
FFFFFFC0
FFFFFFC0
FFFFFFC0
7FFFFF80
00000000
00000000
00000000
003F8000
007F8000
007F8000
007F8000
007F8000
007F8000
003F0000
ENDCHAR
STARTCHAR 00F8
ENCODING 248
SWIDTH 600 0
DWIDTH 30 0
BBX 24 37 3 -4
BITMAP
00003C
000038
000078
000078
03FFF0
1FFFF8
3FFFFC
7FFFFE
7F81FE
FF03FF
FE03FF
FE07FF
FE07FF
FE0F7F
FE0F7F
FE1E7F
FE1E7F
FE1C7F
FE3C7F
FE387F
FE787F
FE787F
FEF07F
FEF07F
FFE07F
FFE07F
FFC07F
FFC0FF
7F81FE
7FFFFE
7FFFFC
3FFFF8
0FFFE0
1E0000
1E0000
3C0000
3C0000
ENDCHAR
STARTCHAR 00F9
ENCODING 249
SWIDTH 620 0
DWIDTH 31 0
BBX 23 39 4 0
BITMAP
07E000
03F000
03F000
01F800
01F800
00F800
007C00
007C00
000000
000000
FE00FE
FE00FE
FE00FE
FE00FE
FE00FE
FE00FE
FE00FE
FE00FE
FE00FE
FE00FE
FE00FE
FE00FE
FE00FE
FE00FE
FE00FE
FE00FE
FE00FE
FE00FE
FE00FE
FE00FE
FE00FE
FE00FE
FE00FE
FF00FE
FF01FE
7FFFFC
7FFFFC
3FFFF8
0FFFC0
ENDCHAR
STARTCHAR 00FA
ENCODING 250
SWIDTH 620 0
DWIDTH 31 0
BBX 23 39 4 0
BITMAP
000FE0
000FC0
001F80
001F80
001F00
003E00
003E00
007C00
000000
000000
FE00FE
FE00FE
FE00FE
FE00FE
FE00FE
FE00FE
FE00FE
FE00FE
FE00FE
FE00FE
FE00FE
FE00FE
FE00FE
FE00FE
FE00FE
FE00FE
FE00FE
FE00FE
FE00FE
FE00FE
FE00FE
FE00FE
FE00FE
FF00FE
FF01FE
7FFFFC
7FFFFC
3FFFF8
0FFFC0
ENDCHAR
STARTCHAR 00FB
ENCODING 251
SWIDTH 620 0
DWIDTH 31 0
BBX 23 39 4 0
BITMAP
00FC00
00FE00
01FE00
03FF00
03FF80
07CF80
0F87C0
0F01E0
000000
000000
FE00FE
FE00FE
FE00FE
FE00FE
FE00FE
FE00FE
FE00FE
FE00FE
FE00FE
FE00FE
FE00FE
FE00FE
FE00FE
FE00FE
FE00FE
FE00FE
FE00FE
FE00FE
FE00FE
FE00FE
FE00FE
FE00FE
FE00FE
FF00FE
FF01FE
7FFFFC
7FFFFC
3FFFF8
0FFFC0
ENDCHAR
STARTCHAR 00FC
ENCODING 252
SWIDTH 620 0
DWIDTH 31 0
BBX 23 38 4 0
BITMAP
07C7C0
0FEFE0
0FEFE0
0FEFE0
0FEFE0
07C7C0
000000
000000
000000
FE00FE
FE00FE
FE00FE
FE00FE
FE00FE
FE00FE
FE00FE
FE00FE
FE00FE
FE00FE
FE00FE
FE00FE
FE00FE
FE00FE
FE00FE
FE00FE
FE00FE
FE00FE
FE00FE
FE00FE
FE00FE
FE00FE
FE00FE
FF00FE
FF01FE
7FFFFC
7FFFFC
3FFFF8
0FFFC0
ENDCHAR
STARTCHAR 00FF
ENCODING 255
SWIDTH 560 0
DWIDTH 28 0
BBX 24 38 2 -1
BITMAP
07C3E0
0FE7F0
0FE7F0
0FE7F0
0FE7F0
07C3E0
000000
000000
000000
FE007F
FE007F
FE007F
FE007F
FE007F
FE007F
FE007F
FE007F
FE007F
FE007F
FE007F
FE007F
FF00FF
FF81FF
FFFFFE
7FFFFE
7FFFFC
1FFFF0
00FE00
00FE00
00FE00
00FE00
00FE00
00FE00
00FE00
00FE00
00FE00
00FE00
00FE00
ENDCHAR
STARTCHAR 0131
ENCODING 305
SWIDTH 280 0
DWIDTH 14 0
BBX 7 29 3 0
BITMAP
FE
FE
FE
FE
FE
FE
FE
FE
FE
FE
FE
FE
FE
FE
FE
FE
FE
FE
FE
FE
FE
FE
FE
FE
FE
FE
FE
FE
FE
ENDCHAR
STARTCHAR 0152
ENCODING 338
SWIDTH 840 0
DWIDTH 42 0
BBX 37 39 3 0
BITMAP
03FFFFFFF8
1FFFFFFFF8
3FFFFFFFF8
7FFFFFFFF8
7FFFFFFFF8
7FFFFFFFF8
FF01FF8000
FF01FF0000
FE00FE0000
FE00FE0000
FE00FE0000
FE00FE0000
FE00FE0000
FE00FE0000
FE00FE0000
FE00FE0000
FE00FFFF80
FE00FFFF80
FE00FFFF80
FE00FFFF80
FE00FFFF80
FE00FE0000
FE00FE0000
FE00FE0000
FE00FE0000
FE00FE0000
FE00FE0000
FE00FE0000
FE00FE0000
FE00FE0000
FE00FF0000
FF01FF0000
FF01FF8000
7FFFFFFFF8
7FFFFFFFF8
7FFFFFFFF8
3FFFFFFFF8
1FFFFFFFF8
03FFFFFFF8
ENDCHAR
STARTCHAR 0153
ENCODING 339
SWIDTH 840 0
DWIDTH 42 0
BBX 37 29 3 0
BITMAP
07FFFFFFF8
1FFFFFFFF8
3FFFFFFFF8
7FFFFFFFF8
7F83FF8000
FF01FF0000
FE00FE0000
FE00FE0000
FE00FE0000
FE00FE0000
FE00FE0000
FE00FE0000
FE00FFFF80
FE00FFFF80
FE00FFFF80
FE00FFFF80
FE00FE0000
FE00FE0000
FE00FE0000
FE00FE0000
FE00FE0000
FE00FE0000
FE00FE0000
FF01FF0000
FF83FF8000
7FFFFFFFF8
7FFFFFFFF8
3FFFFFFFF8
07FFFFFFF8
ENDCHAR
STARTCHAR 0160
ENCODING 352
SWIDTH 580 0
DWIDTH 29 0
BBX 0 0 0 0
BITMAP
ENDCHAR
STARTCHAR 0161
ENCODING 353
SWIDTH 580 0
DWIDTH 29 0
BBX 0 0 0 0
BITMAP
ENDCHAR
STARTCHAR 0178
ENCODING 376
SWIDTH 560 0
DWIDTH 28 0
BBX 25 47 2 0
BITMAP
07C1F000
0FE3F800
0FE3F800
0FE3F800
0FE3F800
07C1F000
00000000
00000000
FE003F80
FE003F80
FE003F80
FE003F80
FE003F80
FE003F80
FE003F80
FE003F80
FE003F80
FE003F80
FE003F80
FE003F80
FE003F80
FE003F80
FE003F80
FE003F80
FF007F80
FF007F80
FF80FF80
FFFFFF00
7FFFFF00
7FFFFF00
3FFFFE00
0FFFF000
007F0000
007F0000
007F0000
007F0000
007F0000
007F0000
007F0000
007F0000
007F0000
007F0000
007F0000
007F0000
007F0000
007F0000
007F0000
ENDCHAR
STARTCHAR 017D
ENCODING 381
SWIDTH 460 0
DWIDTH 23 0
BBX 0 0 0 0
BITMAP
ENDCHAR
STARTCHAR 017E
ENCODING 382
SWIDTH 460 0
DWIDTH 23 0
BBX 0 0 0 0
BITMAP
ENDCHAR
STARTCHAR 02C6
ENCODING 710
SWIDTH 360 0
DWIDTH 18 0
BBX 15 8 1 30
BITMAP
07E0
0FE0
1FF0
1FF8
3FF8
7E7C
783E
F01E
ENDCHAR
STARTCHAR 02C7
ENCODING 711
SWIDTH 360 0
DWIDTH 18 0
BBX 16 8 1 30
BITMAP
F01F
783E
7C7C
3FFC
1FF8
1FF0
0FF0
07E0
ENDCHAR
STARTCHAR 02D8
ENCODING 728
SWIDTH 300 0
DWIDTH 15 0
BBX 14 8 1 32
BITMAP
F03C
F03C
F87C
FFFC
7FF8
7FF0
1FE0
0F80
ENDCHAR
STARTCHAR 02D9
ENCODING 729
SWIDTH 280 0
DWIDTH 14 0
BBX 7 5 4 32
BITMAP
FE
FE
FE
FE
FE
ENDCHAR
STARTCHAR 02DA
ENCODING 730
SWIDTH 240 0
DWIDTH 12 0
BBX 10 10 1 31
BITMAP
1E00
3F00
7F80
F3C0
E1C0
E1C0
F3C0
7F80
3F00
1E00
ENDCHAR
STARTCHAR 02DB
ENCODING 731
SWIDTH 300 0
DWIDTH 15 0
BBX 10 10 1 -10
BITMAP
0E00
1E00
3C00
7800
F800
F000
F000
F800
7FC0
1F00
ENDCHAR
STARTCHAR 02DC
ENCODING 732
SWIDTH 380 0
DWIDTH 19 0
BBX 17 5 1 32
BITMAP
1F0180
3FE380
7FFF00
FFFF00
FFFC00
ENDCHAR
STARTCHAR 02DD
ENCODING 733
SWIDTH 400 0
DWIDTH 20 0
BBX 18 8 1 30
BITMAP
1F8FC0
3F9FC0
3F1F80
7E3F00
7E3F00
FC3E00
F87C00
F87C00
ENDCHAR
STARTCHAR 2013
ENCODING 8211
SWIDTH 600 0
DWIDTH 30 0
BBX 22 5 4 11
BITMAP
FFFFFC
FFFFFC
FFFFFC
FFFFFC
FFFFFC
ENDCHAR
STARTCHAR 2014
ENCODING 8212
SWIDTH 1000 0
DWIDTH 50 0
BBX 42 5 4 11
BITMAP
FFFFFFFFFFC0
FFFFFFFFFFC0
FFFFFFFFFFC0
FFFFFFFFFFC0
FFFFFFFFFFC0
ENDCHAR
STARTCHAR 2018
ENCODING 8216
SWIDTH 300 0
DWIDTH 15 0
BBX 8 11 3 28
BITMAP
07
1F
3F
78
FE
FF
FF
FF
FF
FF
7E
ENDCHAR
STARTCHAR 2019
ENCODING 8217
SWIDTH 300 0
DWIDTH 15 0
BBX 8 12 3 27
BITMAP
7E
FF
FF
FF
FF
FF
7F
0E
3E
FC
F8
80
ENDCHAR
STARTCHAR 201A
ENCODING 8218
SWIDTH 300 0
DWIDTH 15 0
BBX 8 11 3 -4
BITMAP
7F
FF
FF
FF
FF
FF
7F
1E
7E
FC
F0
ENDCHAR
STARTCHAR 201C
ENCODING 8220
SWIDTH 500 0
DWIDTH 25 0
BBX 19 11 3 28
BITMAP
0700E0
1F03E0
3F07E0
780F00
FE1FC0
FF1FE0
FF1FE0
FF1FE0
FF1FE0
FF1FE0
7E0FC0
ENDCHAR
STARTCHAR 201D
ENCODING 8221
SWIDTH 500 0
DWIDTH 25 0
BBX 19 12 3 27
BITMAP
7E0FC0
FF1FE0
FF1FE0
FF1FE0
FF1FE0
FF1FE0
7F0FE0
0E01C0
3E07C0
FC1F80
F81F00
801000
ENDCHAR
STARTCHAR 201E
ENCODING 8222
SWIDTH 500 0
DWIDTH 25 0
BBX 19 11 3 -4
BITMAP
7F0FE0
FF1FE0
FF1FE0
FF1FE0
FF1FE0
FF1FE0
7F0FE0
1E03C0
7E0FC0
FC1F80
F01E00
ENDCHAR
STARTCHAR 2020
ENCODING 8224
SWIDTH 440 0
DWIDTH 22 0
BBX 21 45 0 -5
BITMAP
00F800
01FC00
01FC00
01FC00
01FC00
01FC00
01FC00
01FC00
01FC00
01FC00
01FC00
01FC00
FFFFF8
FFFFF8
FFFFF8
FFFFF8
FFFFF8
FFFFF8
01FC00
01FC00
01FC00
01FC00
01FC00
01FC00
01FC00
01FC00
01FC00
01FC00
01FC00
01FC00
01FC00
01FC00
01FC00
01FC00
01FC00
01FC00
01FC00
01FC00
01FC00
01FC00
01FC00
01FC00
01FC00
01FC00
00F800
ENDCHAR
STARTCHAR 2022
ENCODING 8226
SWIDTH 600 0
DWIDTH 30 0
BBX 18 19 6 9
BITMAP
004000
07FC00
0FFE00
1FFF00
3FFF80
7FFF80
7FFFC0
FFFFC0
FFFFC0
FFFFC0
FFFFC0
FFFFC0
7FFFC0
7FFFC0
3FFF80
3FFF00
1FFE00
0FFC00
03F000
ENDCHAR
STARTCHAR 2026
ENCODING 8230
SWIDTH 1000 0
DWIDTH 50 0
BBX 42 7 4 1
BITMAP
7F003F801FC0
FF007F803FC0
FF007F803FC0
FF007F803FC0
FF007F803FC0
FF007F803FC0
7E003F001F80
ENDCHAR
STARTCHAR 2030
ENCODING 8240
SWIDTH 1080 0
DWIDTH 54 0
BBX 50 40 2 0
BITMAP
1FF80078000000
7FFE0070000000
7FFF00F0000000
F81F00E0000000
F81F01E0000000
F81F01C0000000
F81F03C0000000
F81F0780000000
F81F0700000000
F81F0F00000000
F81F0E00000000
F81F1E00000000
F81F1C00000000
F81F3C00000000
F81F3800000000
F81F7800000000
7C3E7000000000
7FFEF000000000
1FF9E000000000
0001C000000000
0003C000000000
00038000000000
00078000000000
00070FFE07FF00
000F3FFF1FFF80
000E7E1FBF0FC0
001E7C0FBE07C0
001C7C0FBE07C0
003C7C0FBE07C0
00387C0FBE07C0
00787C0FBE07C0
00F07C0FBE07C0
00E07C0FBE07C0
01E07C0FBE07C0
01C07C0FBE07C0
03C07C0FBE07C0
03807C0FBE07C0
07807F3FBF9FC0
07003FFF1FFF80
0F000FFC07FE00
ENDCHAR
STARTCHAR 2039
ENCODING 8249
SWIDTH 240 0
DWIDTH 12 0
BBX 9 19 2 4
BITMAP
0780
0F00
0F00
1E00
3C00
3C00
7800
7800
F000
F000
7800
7800
3C00
3C00
1E00
1E00
0F00
0F00
0780
ENDCHAR
STARTCHAR 203A
ENCODING 8250
SWIDTH 240 0
DWIDTH 12 0
BBX 8 19 2 4
BITMAP
F0
F0
78
78
3C
3C
1E
1E
0F
0F
0F
1F
1E
3E
3C
78
78
F0
F0
ENDCHAR
STARTCHAR 2044
ENCODING 8260
SWIDTH 440 0
DWIDTH 22 0
BBX 24 39 -1 0
BITMAP
000007
00000F
00000E
00001E
00003C
00003C
000078
000070
0000F0
0000E0
0001E0
0001C0
0003C0
000780
000780
000F00
000E00
001E00
001C00
003C00
003800
007800
00F000
00F000
01E000
01C000
03C000
038000
078000
070000
0F0000
1E0000
1E0000
3C0000
380000
780000
700000
F00000
E00000
ENDCHAR
STARTCHAR 2122
ENCODING 8482
SWIDTH 620 0
DWIDTH 31 0
BBX 23 12 3 26
BITMAP
FE7FFC
FE7FFE
38E38E
38E38E
38E38E
38E38E
38E38E
38E38E
38E38E
38E38E
38E38E
38E38E
ENDCHAR
STARTCHAR 2202
ENCODING 8706
SWIDTH 600 0
DWIDTH 30 0
BBX 24 39 3 0
BITMAP
03FFC0
0FFFF0
3FFFFC
3FFFFC
7FFFFE
7FEFFE
FF00FF
FF00FF
FE007F
FE007F
FE007F
FE007F
FE007F
FE007F
FE007F
FE007F
FFFFFF
FFFFFF
FFFFFF
FFFFFF
FFFFFF
FE007F
FE007F
FE007F
FE007F
FE007F
FE007F
FE007F
FE007F
FE007F
FF007F
FF00FF
7F80FE
7FE7FE
7FFFFE
7FFFFC
3FFFFC
1FFFF8
03FFC0
ENDCHAR
STARTCHAR 220F
ENCODING 8719
SWIDTH 560 0
DWIDTH 28 0
BBX 0 0 0 0
BITMAP
ENDCHAR
STARTCHAR 2211
ENCODING 8721
SWIDTH 580 0
DWIDTH 29 0
BBX 22 33 4 -4
BITMAP
07FF80
1FFFF0
7FFFF8
7FFFFC
7F03FC
FE01FC
FE01FC
FE01FC
FE01FC
FE01FC
FE07FC
FE3FF8
FE3FF0
FE3FE0
FE3FF8
FE07F8
FE03FC
FE01FC
FE01FC
FE01FC
FE01FC
FE01FC
FE01FC
FE03FC
FE07FC
FE3FFC
FE3FF8
FE3FF0
FE3F80
FE0000
FE0000
FE0000
FE0000
ENDCHAR
STARTCHAR 2260
ENCODING 8800
SWIDTH 560 0
DWIDTH 28 0
BBX 22 33 4 -4
BITMAP
07FF80
1FFFF0
7FFFF8
7FFFFC
7F03FC
FE01FC
FE01FC
FE01FC
FE01FC
FE01FC
FE07FC
FE3FF8
FE3FF0
FE3FE0
FE3FF8
FE07F8
FE03FC
FE01FC
FE01FC
FE01FC
FE01FC
FE01FC
FE01FC
FE03FC
FE07FC
FE3FFC
FE3FF8
FE3FF0
FE3F80
FE0000
FE0000
FE0000
FE0000
ENDCHAR
ENDFONT
